<svg id="Layer_1" data-name="Layer 1" xmlns="http://www.w3.org/2000/svg" viewBox="0 0 346.464 390"><defs><style>.cls-1{fill:#fff;}.cls-2{fill:#262525;}</style></defs><path class="cls-1" d="M55.914,344.451C56.1,344.2,74.827,319.24,93.57,311.97c17.36-6.737,39.47-5.981,65.73,2.246,9.472,3.411,18.757,7.766,44.48,29.791l.28.326c2.972,1.108,55.5,21.349,87.5,74.3.582-4.44.5-22.429-24.122-71.12l-.359-.711.8-.022h.02c.755,0,6.913,1.1,21.562,33.58.02-2.636-.628-8.428-4.867-18.915l-.714-1.765,1.5,1.179c.133.105,3.233,2.6,5.917,8.825,1.456.166,6.65,1.918,15.1,17.252-.208-3.892-1.2-12.59-5.77-20.375l-.117-.2.074-.217a30.66,30.66,0,0,0-1.494-20.833l-.5-1.065,1.116.372c.3.1,7.383,2.648,6.747,18.71.573,1.084,4.432,8.461,5.982,13.771a30.741,30.741,0,0,0,1.425-14.251l-.047-.305.25-.182c.282-.2,6.868-5.136,3.022-15.233l-.6-1.577,1.369.989c.086.062,8.17,6.02,11.818,18.3.453-6.563-.641-24.831-23.154-42.134l-1.06-.815,1.334-.089c7.912-.533,8.852-3.156,9.254-4.275.058-.162.129-.345.248-.652.353-.909.886-2.282,1.548-4.533l.317-1.083-.944-.613a2.285,2.285,0,0,1-.95-1.337l-.134-.467.462-.152c3.129-1.029,3.681-2.568,3.978-3.4.2-.546.423-1.125.67-1.751.284-.724.589-1.509.885-2.336l.127-.358.379.024c1.731.105,3.359.16,4.84.16,11.8,0,14.345-3.274,15.229-5.736,1.808-5.036,1.816-5.06,2.1-5.9.237-.7.682-2.015,2.592-7.475l.107-.305.321-.031c2.605-.253,5.47-2.41,7.129-5.368a9.591,9.591,0,0,0,.951-7.636l-.095-.3.229-.217A134.169,134.169,0,0,0,374.458,95.437l-.18-.266.164-.276c2.263-3.81-.248-9.372-3.54-12.926-4.178-4.511-9.264-5.947-13.278-3.743l-.369.2-.265-.326a129.183,129.183,0,0,0-195.636-5.434l-.087.094-29.19,10.06a2.544,2.544,0,0,0-1.3,1.02L96.608,136.863a2.523,2.523,0,0,0,.649,3.418l3.143,2.257-.2.386c-2.16,4.28-1.493,8.476,2.038,12.827l.254.314-.25.317c-5.619,7.131-10,14.151-13.119,25.233-2.613,9.281-2.19,16.9-1.654,26.541.137,2.457.293,5.242.4,8.248.311,8.665-3.421,11.865-8.588,16.3a55.822,55.822,0,0,0-7.719,7.619,23.14,23.14,0,0,0-4.968,16.2l.016.248a34.245,34.245,0,0,0,3.762,13.278l.169.324-.255.261c-4.146,4.262-4.977,9.023-2.613,14.985l.169.428-3.36,1.705a2.015,2.015,0,0,0-1.064,1.393L52.315,342.836a2.033,2.033,0,0,0,1.152,2.252A2.059,2.059,0,0,0,55.914,344.451Zm39.358-85.475.046-.564c.47-5.745,5.068-9.934,5.264-10.11.643-.575,1.282-1.132,1.945-1.708,5.518-4.8,10.73-9.329,10.34-20.152-.094-2.641-.212-5.086-.325-7.393l-.007-.177c-.48-9.847-.826-16.96,1.211-26,2.441-10.837,4.608-16.048,10.083-24.24l.138-.206.247-.017a11.522,11.522,0,0,0,2.913-.6l.624-.211.042.656a129.523,129.523,0,0,0,3.519,22.7l.041.167-.069.157c-1.544,3.531-2.974,6.485-4.243,9.105a142.2,142.2,0,0,0-6.554,15.15c-.879,2.45-1,6.571,8.027,14.042l.29.24-.147.346c-.594,1.4-1.06,2.759-1.487,4.03-.178.529-.347,1.032-.514,1.5-.289.805-.826,2.3.8,4.97l.264.435-.436.261a3.326,3.326,0,0,1-1.83.406l-1.113-.047-.377,1.048c-.519,1.449-1,2.826-1.362,3.84l-.467,1.32c-.438,1.219-1.6,4.456,7.06,11.472l.507.41-.524.389a8.418,8.418,0,0,1-9.453.637,2.021,2.021,0,0,0-2-.1l-10.232,5.195-.238-.419c-2.593-4.562-6.331-6.712-11.41-6.546Z" transform="translate(-51.768 -30)"/><path class="cls-2" d="M260.488,206.845,222.5,172.007a2.525,2.525,0,1,0-3.412,3.722l37.564,34.447a30.966,30.966,0,0,1-37.134-49.561l44.95,41.221A31.112,31.112,0,0,1,260.488,206.845Z" transform="translate(-51.768 -30)"/><path class="cls-2" d="M252.087,157.432c-1.706,2.937-.611,7.252,2.738,10.115,3.156,2.7,7.275,3.216,9.945,1.476a30.791,30.791,0,0,1,4.514,14.6l-32.035-29.376c.367-.013.734-.028,1.1-.028A30.834,30.834,0,0,1,252.087,157.432Z" transform="translate(-51.768 -30)"/><path class="cls-2" d="M268.319,193.037l-40.37-37.02a30.81,30.81,0,0,1,5.26-1.363l36.007,33.019A30.936,30.936,0,0,1,268.319,193.037Z" transform="translate(-51.768 -30)"/><path class="cls-2" d="M280,44.954a97.735,97.735,0,0,1,45.594,19.8,83.417,83.417,0,0,1,17.11,18.027,222.712,222.712,0,0,0-19.849-14.148A158.312,158.312,0,0,0,279.039,49.62a227.04,227.04,0,0,0-23.891-4.831A83.314,83.314,0,0,1,280,44.954Z" transform="translate(-51.768 -30)"/><path class="cls-2" d="M292.056,58.88a74.253,74.253,0,0,1,14.285,5.3,80.884,80.884,0,0,1,12.972,7.943,64.051,64.051,0,0,1,11.027,10.4c-4.308-2.657-8.493-5.3-12.778-7.757q-6.4-3.711-13-6.953c-4.4-2.15-8.885-4.128-13.472-5.9-4.584-1.792-9.274-3.321-14.113-4.807A53.848,53.848,0,0,1,292.056,58.88Z" transform="translate(-51.768 -30)"/><path class="cls-2" d="M53.26,345.549a2.526,2.526,0,0,0,3.059-.8c.186-.251,18.825-25.094,37.433-32.312,17.279-6.7,39.262-5.932,65.377,2.251,9.445,3.4,18.908,7.937,44.269,29.645l.365.424S258.8,364.454,291.8,420c0,0,5.723-14.139-23.9-72.715,0,0,6.228-.168,21.882,35.011,0,0,1.683-5.218-4.713-21.04,0,0,3.2,2.525,5.891,8.921,0,0,5.555-.842,15.991,18.852,0,0,.336-12.119-5.892-22.723a30.963,30.963,0,0,0-1.515-21.209s7.07,2.357,6.4,18.347c0,0,5.218,9.763,6.4,15.317a31.1,31.1,0,0,0,2.02-15.99s7.237-5.218,3.2-15.822c0,0,9.089,6.564,12.287,20.535,0,0,5.538-23.233-23.019-45.18,8.236-.554,9.25-3.367,9.7-4.607.065-.182.147-.391.244-.64.356-.919.895-2.308,1.561-4.574l.424-1.443-1.261-.819a1.806,1.806,0,0,1-.738-1.052c3.358-1.1,3.975-2.811,4.3-3.7.2-.547.425-1.127.665-1.738.286-.728.592-1.517.89-2.35q2.657.162,4.871.161c11.715,0,14.674-3.2,15.7-6.071,1.818-5.067,1.818-5.067,2.1-5.9.237-.7.681-2.015,2.59-7.471,2.737-.264,5.766-2.492,7.522-5.623a10.051,10.051,0,0,0,.992-8.036,134.676,134.676,0,0,0,18.5-173.281c2.291-3.857.123-9.5-3.6-13.527-4.371-4.72-9.732-6.127-13.892-3.843a129.687,129.687,0,0,0-196.4-5.456l-29.07,10.018a3.028,3.028,0,0,0-1.559,1.223l-34.17,53.021a3.031,3.031,0,0,0,.779,4.1l2.792,2c-2.586,5.128-.94,9.631,2.1,13.373-5.845,7.419-10.132,14.479-13.209,25.409-2.635,9.361-2.21,17.015-1.671,26.706.145,2.6.294,5.288.4,8.238.3,8.423-3.353,11.557-8.412,15.893A56.237,56.237,0,0,0,71.174,240,23.789,23.789,0,0,0,66.1,256.549c0,.084.012.167.017.25a34.669,34.669,0,0,0,3.818,13.481c-4.357,4.477-5.136,9.43-2.722,15.522l-2.95,1.5a2.528,2.528,0,0,0-1.329,1.74L51.821,342.734A2.525,2.525,0,0,0,53.26,345.549Zm18.452-62.033c-2.061-5.246-1.473-10.043,12.649-16.593a35.067,35.067,0,0,1,10.453-3.382C76.676,272.5,74.519,278.687,74.73,281.984Zm46.628,10.622a31.155,31.155,0,0,1,5.783-1.83,19.906,19.906,0,0,0,4.776-1.5c.152-.081.286-.183.436-.276l.226-.157a5.473,5.473,0,0,1,.49-.35,7.117,7.117,0,0,1,1.766-.758c1.059-.3,1.972-.452,2.826-.664a9.011,9.011,0,0,0,2.391-.894,7.876,7.876,0,0,0,2.135-1.9,5.281,5.281,0,0,1-.81,3.176,7.528,7.528,0,0,1-2.507,2.366,28.847,28.847,0,0,1-2.73,1.378,4.625,4.625,0,0,0-.894.529l-.451.4a6.184,6.184,0,0,1-.78.566,8.779,8.779,0,0,1-3.4,1.231,14.493,14.493,0,0,1-3.209.137A17.3,17.3,0,0,1,118.34,294.138Zm.883,4.8a29.342,29.342,0,0,1-4.442.794c-1.454.151-2.9.225-4.336.234s-2.875-.048-4.32-.167a40.126,40.126,0,0,1-4.449-.608,11.914,11.914,0,0,1,4.274-1.768,21.048,21.048,0,0,1,4.48-.486,22.344,22.344,0,0,1,4.468.424A13.471,13.471,0,0,1,119.223,298.935Zm5.429-14.77a7.5,7.5,0,0,1,3.832-5.445,8.025,8.025,0,0,1,3.588-.946,10.663,10.663,0,0,1,1.829.128l1.491.27c1.947.38,3.826.85,5.713,1.3L147,280.883a12.969,12.969,0,0,1-6.158,1.759,24.933,24.933,0,0,1-6.23-.508l-1.471-.322a10.917,10.917,0,0,0-1.171-.217,7.633,7.633,0,0,0-2.324.071A12.641,12.641,0,0,0,124.652,284.165Zm-23.481,7.574a10.094,10.094,0,0,1,3.241-5.009,30.711,30.711,0,0,1,4.837-3.344c.81-.474,1.569-.937,2.23-1.387.151-.115.32-.227.456-.34.121-.116.25-.217.376-.322.082-.1.162-.193.249-.28a1.853,1.853,0,0,1,.143-.262,11.594,11.594,0,0,0,.554-4.247,25.512,25.512,0,0,1,.291-3.116,8.355,8.355,0,0,1,1.518-3.6,6.975,6.975,0,0,1,1.606-1.49,8.182,8.182,0,0,1,1.844-.805,13.977,13.977,0,0,1,3.207-.453c1.959-.072,3.747-.006,5.51-.145a15.4,15.4,0,0,0,2.6-.431,10.074,10.074,0,0,0,2.516-1.149,7.092,7.092,0,0,1-1.845,2.368,11.383,11.383,0,0,1-2.637,1.6,34.235,34.235,0,0,1-5.6,1.677,14.061,14.061,0,0,0-2.291.725c-.321.12-.453.318-.681.424a2.354,2.354,0,0,0-.373.493c-.442.658-.593,2.258-.627,4.1-.048.941-.08,1.936-.242,3.055a9.029,9.029,0,0,1-1.342,3.614c-.226.3-.461.59-.7.861-.256.232-.519.461-.783.677-.254.171-.505.344-.764.5s-.5.265-.744.4a22.919,22.919,0,0,1-2.8,1.142C107.346,288.251,103.987,289,101.171,291.739Zm6.515-26.485c-2.681-4.719-6.524-6.966-11.864-6.8.452-5.538,4.885-9.584,5.1-9.775.654-.584,1.3-1.149,1.939-1.7,5.612-4.879,10.913-9.487,10.515-20.552-.1-2.711-.219-5.216-.333-7.577-.478-9.808-.822-16.894,1.2-25.862,2.4-10.645,4.547-15.9,10.011-24.071a12.065,12.065,0,0,0,3.04-.622,129.954,129.954,0,0,0,3.532,22.784c-1.512,3.458-2.891,6.313-4.227,9.074a142.73,142.73,0,0,0-6.583,15.212c-1.027,2.862-.769,7.2,8.181,14.6-.613,1.446-1.084,2.827-1.5,4.066-.176.526-.344,1.025-.511,1.489-.313.874-.906,2.529.842,5.4a2.735,2.735,0,0,1-1.551.334l-1.483-.062-.5,1.4c-.52,1.45-1.006,2.829-1.363,3.843l-.467,1.317c-.5,1.4-1.707,4.8,7.219,12.035A7.939,7.939,0,0,1,120,260.4a2.526,2.526,0,0,0-2.508-.127Zm-6.522-99.609c.087.091.173.183.262.271a24.84,24.84,0,0,0,2.011,1.769,22.74,22.74,0,0,0,4.661,2.94,23.777,23.777,0,0,1-5.644-1,27.574,27.574,0,0,1-2.791-.967c-.088-.037-.175-.077-.263-.115Q100.246,167.062,101.164,165.645Zm-7.645,17.144c2.88.912,5.776,1.861,8.579,2.956-3.17.061-6.29.3-9.439.573.234-1.134.509-2.286.843-3.472Zm-1.867,12.293c1.22.292,2.408.636,3.58,1.031a33.444,33.444,0,0,1,5.688,2.508,32.377,32.377,0,0,0-6.022-.363c-1.1.033-2.2.113-3.277.239C91.608,197.341,91.615,196.205,91.652,195.082Zm-12.8,44.072a19.639,19.639,0,0,1,3.355,1.8,16.472,16.472,0,0,1,4.875,5.012,15.375,15.375,0,0,0-5.8-3.05,14.242,14.242,0,0,0-5.561-.479A39.839,39.839,0,0,1,78.853,239.154ZM73.4,245.712a22.37,22.37,0,0,1,4.808,1.051,18.563,18.563,0,0,1,6.886,4.074,17.476,17.476,0,0,0-7.308-1.944,17.894,17.894,0,0,0-5.968.69A17.976,17.976,0,0,1,73.4,245.712Zm-2.227,7.4a16.641,16.641,0,0,1,4.217-1,14.031,14.031,0,0,1,9.368,2.09,13.776,13.776,0,0,0-13.591,2.781A22.785,22.785,0,0,1,71.175,253.111ZM92.012,207.9c-.007-.11-.012-.214-.018-.323a30.524,30.524,0,0,1,3.635.493,19.589,19.589,0,0,1,5.626,1.945,18.5,18.5,0,0,0-5.667.226,26.956,26.956,0,0,0-3.4.845Q92.1,209.467,92.012,207.9Zm9.539,8.69a18.523,18.523,0,0,0-5.665-.291,26.934,26.934,0,0,0-3.467.533c0-.2,0-.389,0-.595-.037-1.02-.079-2-.124-2.958a30.309,30.309,0,0,1,3.833.862A19.583,19.583,0,0,1,101.551,216.594Zm.377,7.228a19.908,19.908,0,0,0-5.884-1.365,27.346,27.346,0,0,0-4.1-.062,23.478,23.478,0,0,0,.451-3.656,30.364,30.364,0,0,1,4.238,1.628A20.951,20.951,0,0,1,101.928,223.822Zm.7,10.437a1.753,1.753,0,1,1-2.585.247A1.841,1.841,0,0,1,102.625,234.259Zm-.085-6.773a1.911,1.911,0,1,1,1.627,1.987A1.82,1.82,0,0,1,102.54,227.486Zm3.512-7.352a1.57,1.57,0,1,1-1.336-1.631A1.494,1.494,0,0,1,106.052,220.134Zm-3.168-7.471a1.457,1.457,0,1,1,1.24,1.514A1.387,1.387,0,0,1,102.884,212.663Zm.069-6.431a1.364,1.364,0,1,1,1.161,1.418A1.3,1.3,0,0,1,102.953,206.232Zm.442-6.059a1.363,1.363,0,1,1,1.161,1.417A1.3,1.3,0,0,1,103.4,200.173Zm.82-5.492a1.364,1.364,0,1,1,1.161,1.417A1.3,1.3,0,0,1,104.215,194.681Zm.937-5.6a1.507,1.507,0,1,1,1.283,1.566A1.435,1.435,0,0,1,105.152,189.083Zm1.253-5.58a1.514,1.514,0,1,1,1,1.773A1.442,1.442,0,0,1,106.405,183.5Zm1.564-5.261a1.725,1.725,0,1,1,1.136,2.02A1.644,1.644,0,0,1,107.969,178.242Zm2.184-4.566a1.627,1.627,0,1,1,.838,2.019A1.55,1.55,0,0,1,110.153,173.676Zm2.838-4.059a1.363,1.363,0,1,1,.862,1.616A1.3,1.3,0,0,1,112.991,169.617ZM97.606,242.541a1.744,1.744,0,1,1-.448-2.3A1.659,1.659,0,0,1,97.606,242.541ZM76.874,260.514a12.745,12.745,0,0,0-4.02,3.927,29.911,29.911,0,0,1-1.107-3.723,16.509,16.509,0,0,1,4.2-2.169,14.028,14.028,0,0,1,9.6-.122A12.958,12.958,0,0,0,76.874,260.514Zm11.393-4.66a1.051,1.051,0,1,1-1.3.863A1.1,1.1,0,0,1,88.267,255.854Zm-.643-2.569a1.159,1.159,0,1,1,.86,1.3A1.1,1.1,0,0,1,87.624,253.285Zm1.187-3.688a1.254,1.254,0,1,1,.514,1.6A1.193,1.193,0,0,1,88.811,249.6Zm2.146-4.46a1.6,1.6,0,1,1,.412,2.116A1.528,1.528,0,0,1,90.957,245.137Zm.121-11.089a26.821,26.821,0,0,0-4.76-1.59,24.663,24.663,0,0,0,2.546-2.982,31.357,31.357,0,0,1,3.422,2.768,21.91,21.91,0,0,1,4.138,5.092A20.828,20.828,0,0,0,91.078,234.048Zm.384-9.783a30.988,30.988,0,0,1,4.275,2.158,21.931,21.931,0,0,1,5.1,4.132,20.878,20.878,0,0,0-5.909-2.118,26.784,26.784,0,0,0-5.03-.575A17.953,17.953,0,0,0,91.462,224.265ZM101.5,203.13a32.35,32.35,0,0,0-5.984.773,37.473,37.473,0,0,0-3.665,1.01c-.062-1.209-.117-2.382-.158-3.522,1.267.057,2.511.172,3.749.342A33.435,33.435,0,0,1,101.5,203.13ZM95.53,176.712c.957.544,1.973,1.075,2.975,1.611,1.65.877,3.31,1.779,4.878,2.783-1.833-.33-3.662-.524-5.507-.7-1.161-.121-2.318-.22-3.515-.374Q94.919,178.306,95.53,176.712Zm2.62-5.877a36.734,36.734,0,0,0,7.674,4.128,38.673,38.673,0,0,1-9.178-.973C97.125,172.9,97.626,171.853,98.15,170.835Zm4.464-7.35q.913-1.305,1.895-2.6a24.7,24.7,0,0,0,1.82,1.846A22.712,22.712,0,0,0,110.765,166a23.781,23.781,0,0,1-5.556-1.407A27.991,27.991,0,0,1,102.614,163.485ZM84.456,234.221a32.522,32.522,0,0,1,2.781,2.315,21.962,21.962,0,0,1,4.138,5.092,20.878,20.878,0,0,0-5.347-3.288,27.227,27.227,0,0,0-4.537-1.543l.754-.648C82.993,235.508,83.733,234.87,84.456,234.221Zm7.732-45.258c1.242.253,2.45.56,3.644.92a32.08,32.08,0,0,1,5.425,2.174,30.916,30.916,0,0,0-5.666-.016,36.335,36.335,0,0,0-3.8.544C91.881,191.381,92.008,190.178,92.188,188.963Zm11.694-43.3,4.943,3.55c-.184,2.6,1.6,7.114,12.647,14.423-2.4-.564-5.448-2.159-9.792-5.381C103.209,151.968,102.85,148.165,103.882,145.661Zm30.106-56.548.89-1.381,2.249-.775,15.083-5.2-13.733,7.157,4.943,7.176-7.049-5.216-28.888,45.419,2.928,2.8,23.553-31.833-20.128,35.105,12.6,12.033-13.809-9.918-4.047-2.907-5.738-4.122Zm232.839-3.37a12.909,12.909,0,0,1,2.216,3.231c-5.948,4.657-72.516,56.877-91.131,76.016q-.877-1.712-1.895-3.337c16.368-15.066,40.619-35.633,61.395-52.492a48.919,48.919,0,0,0-3.961-4.5q1.609-1.3,3.159-2.551a52.215,52.215,0,0,1,3.945,4.5q1.809-1.461,3.575-2.875a48.379,48.379,0,0,0-4.017-4.449c1.659-1.335,3.252-2.613,4.756-3.819a54.267,54.267,0,0,1,4,4.488c2.684-2.13,5.262-4.157,7.688-6.043a28.52,28.52,0,0,0-4.224-4.424c3.607-2.892,6.218-5,7.416-6.026C362.445,81.16,366.386,85.267,366.827,85.743ZM238.353,146.815a38.377,38.377,0,1,1-38.378,38.377A38.421,38.421,0,0,1,238.353,146.815Zm50.938,110.607c-2.355-3.315-15.4-22.024-21.892-38.643a44.9,44.9,0,0,0,3.259-3.122c7.662,18.2,21.347,37.117,21.968,37.972l.35.481.5.312c25.543,15.837,54.461,19.049,55.679,19.178l.819.087a5.3,5.3,0,0,1-2.685,2.4C337.909,276.177,315.122,272.3,289.291,257.422Zm75.883-150.963c1.171-.222,2.436,1.259,2.825,3.308s-.245,3.89-1.416,4.113-2.436-1.259-2.825-3.308S364,106.682,365.174,106.459Zm-45.733,58.03a19.818,19.818,0,0,0,3.95-2.84,10.787,10.787,0,0,1,2.268-1.5,5.535,5.535,0,0,1,.709-.281l.185-.061c.072-.021.127-.041.109-.046.007-.019.015-.028.026-.03.028,0,.059-.069.111-.089.046-.092.11-.125.168-.241a6.321,6.321,0,0,0,.664-1.769c.171-.709.305-1.463.428-2.238.232-1.562.4-3.162.6-4.915a11.026,11.026,0,0,1,1.776,4.929,12.211,12.211,0,0,1,.023,2.712,7.047,7.047,0,0,1-.932,2.905,5.612,5.612,0,0,1-.589.742,3.888,3.888,0,0,1-.891.632c-.18.077-.364.147-.548.207a1.516,1.516,0,0,1-.185.054l-.113.027c-.152.027-.305.085-.464.127a20.835,20.835,0,0,0-2.094.867A7.856,7.856,0,0,1,319.441,164.489Zm2.948,19.71c.195-.552.343-1.077.48-1.608s.258-1.071.366-1.647a12.582,12.582,0,0,0,.246-1.938,2.865,2.865,0,0,1,1.333,1.82,4.462,4.462,0,0,1,.011,2.266,3.838,3.838,0,0,1-3.111,2.984Zm4.888-9.817a3.49,3.49,0,0,1-1.019,1.847c-.253-.706-.408-1.284-.564-1.855s-.271-1.108-.384-1.649-.212-1.079-.309-1.649-.193-1.167-.258-1.917a3.409,3.409,0,0,1,1.7,1.257,4.784,4.784,0,0,1,.841,1.9A4.944,4.944,0,0,1,327.277,174.382Zm-2.432,32.771a19.337,19.337,0,0,1-3.916,5.642,62.557,62.557,0,0,0-4.151,4.725,59.109,59.109,0,0,0-3.522,5.418,15.011,15.011,0,0,1,1.483-6.649,22.377,22.377,0,0,1,3.958-5.542,40.056,40.056,0,0,0,4.055-4.715,29.208,29.208,0,0,0,2.875-5.691A12.368,12.368,0,0,1,324.845,207.153Zm-12.726-11.609a32.622,32.622,0,0,1-2.43-3.034c-.717-1-1.389-1.985-2.048-2.966l-4.106-6.119a7.381,7.381,0,0,1,3.827,1.491,11.558,11.558,0,0,1,2.795,2.943,12.781,12.781,0,0,1,1.679,3.638A9.229,9.229,0,0,1,312.119,195.544ZM338.6,169.025c.022.078.064.2.115.337.105.274.249.594.408.92.322.655.7,1.34,1.1,2.023,1.607,2.746,3.442,5.5,5.264,8.247,1.8,2.772,3.644,5.54,5.377,8.438.863,1.456,1.716,2.92,2.518,4.522.2.4.4.82.588,1.263a13.477,13.477,0,0,1,.5,1.347,14.058,14.058,0,0,1,.618,2.817,11.1,11.1,0,0,1-.982,6.038,13.5,13.5,0,0,1-3.767,4.493,21.154,21.154,0,0,1-2.243,1.556,26.719,26.719,0,0,1-2.343,1.32,24.407,24.407,0,0,1-2.5,1.1,12.443,12.443,0,0,0-2,.816c-.2.11-.209.211-.285.294-.053.122-.135.277-.223.517a11.119,11.119,0,0,0-.51,1.848,3.939,3.939,0,0,0-.03,1.5,6.69,6.69,0,0,0,.464,1.668l.888,2.015a12.869,12.869,0,0,1,.87,2.849,4.846,4.846,0,0,1-.13,2.241,3.42,3.42,0,0,1-.614,1.116,2.275,2.275,0,0,1-.335.348c-.1.095-.2.172-.3.254a25.42,25.42,0,0,1-2.275,1.567c-.728.47-1.433.933-2.093,1.441a8.463,8.463,0,0,0-1.682,1.76c.146.131.343.348.533.561.26.293.512.637.777,1a9.185,9.185,0,0,1,1.311,2.7,6.305,6.305,0,0,1,.26,1.909,4.222,4.222,0,0,1-.671,2.217,3.051,3.051,0,0,1-.347.454l-.178.194-.121.11-.486.437-.978.841c-.651.55-1.315,1.071-1.971,1.589a43.446,43.446,0,0,0-3.734,3.224,6.811,6.811,0,0,0-.786.871,2.59,2.59,0,0,0-.391,1.006c-.074.342-.067.662-.1.941l-.13.842c-.146,1.187.43,2.91.472,4.719a8.152,8.152,0,0,1-1.43,5.033,11.028,11.028,0,0,0-.406-4.74c-.239-.731-.535-1.448-.844-2.241a9.216,9.216,0,0,1-.688-2.755,3.835,3.835,0,0,1,.177-1.617,4.112,4.112,0,0,1,.837-1.352c.338-.384.693-.708,1-1.046s.579-.672.861-.989c1.12-1.274,2.223-2.541,3.29-3.813l1.558-1.913.744-.953a1.712,1.712,0,0,0,.033-1.365l-1.16-1.6c-.207-.322-.443-.648-.662-1.031a8.682,8.682,0,0,1-.677-1.435l-.093-.281a3.291,3.291,0,0,1-.091-.355l-.037-.205c-.014-.1-.024-.2-.03-.295a2.743,2.743,0,0,1,.058-.759,2.3,2.3,0,0,1,.49-.962,2.71,2.71,0,0,1,.422-.4,7.488,7.488,0,0,1,1.35-.759,13.87,13.87,0,0,0,2.266-1.216,13.677,13.677,0,0,0,1.851-1.585,4.56,4.56,0,0,0,1-2.437c-.28-.362-.789-.949-1.252-1.637a12.732,12.732,0,0,1-1.323-2.435,10.962,10.962,0,0,1-.829-3.115,9.252,9.252,0,0,1,.327-3.425,15.012,15.012,0,0,1,1.207-2.807,7.414,7.414,0,0,1,1.191-1.518,5.727,5.727,0,0,1,1.757-1.1,15.97,15.97,0,0,1,2.732-.683,19.31,19.31,0,0,0,2.172-.578,15.743,15.743,0,0,0,3.98-2.125,5.815,5.815,0,0,0,2.33-3.208,6.816,6.816,0,0,0-.3-3.748c-.187-.646-.439-1.3-.7-1.971l-.415-.966c-.144-.313-.309-.643-.486-.978-.713-1.346-1.56-2.732-2.421-4.1l-5.3-8.337c-1.756-2.829-3.526-5.646-5.183-8.671-.413-.763-.817-1.54-1.2-2.384-.192-.424-.379-.866-.555-1.37a8.452,8.452,0,0,1-.25-.851,4.743,4.743,0,0,1-.138-1.306,2.554,2.554,0,0,1,.09-.6c.045-.145.085-.291.143-.431a5.061,5.061,0,0,1,.384-.713l.662-1.258c.43-.784.9-1.51,1.332-2.232a25.094,25.094,0,0,0,1.955-4.5,18.615,18.615,0,0,0,1.056-4.494,8.164,8.164,0,0,0,.022-1.042l-.021-.492c-.03-.108-.037-.192-.08-.31a6.139,6.139,0,0,0-.8-1.556,29.159,29.159,0,0,0-2.859-3.42c-1.089-1.146-2.206-2.3-3.343-3.617-.283-.331-.578-.671-.866-1.056a10.948,10.948,0,0,1-.931-1.4,5.588,5.588,0,0,1-.247-.528l-.145-.41c-.1-.277-.149-.51-.223-.767a13.162,13.162,0,0,1-.265-1.392,56.475,56.475,0,0,1-.071-10.172c2.7,2.506,3.964,6.091,4.938,9.043l.366,1.012c.061.134.117.3.177.409l.084.167c.031.063.021.014.025.03.069.1.278.373.5.63l.741.842c1.056,1.169,2.211,2.428,3.261,3.815a23.531,23.531,0,0,1,2.91,4.656,9.883,9.883,0,0,1,.878,3.1,6.618,6.618,0,0,1,.023.927l-.089.749a12.227,12.227,0,0,1-.273,1.425,32.015,32.015,0,0,1-1.8,5.012,43.975,43.975,0,0,0-1.939,4.645c-.24.794-.41,1.595-.581,2.356a4.884,4.884,0,0,0-.145,1.093,4.029,4.029,0,0,0,.063.486.858.858,0,0,1,.028.18c0,.021-.021.209,0,.017S338.575,168.946,338.6,169.025Zm14.267,94.37c9.721-10.619,17.345-23.094,23.529-37.176a130.946,130.946,0,0,0,7.639-82.859c.952,8.435-.85,15.168-4.853,16.269-5.088,1.4-11.786-6.817-14.958-18.352a43.223,43.223,0,0,1-1.638-11.911c-1.256,3.326-3.411,5.523-5.861,5.523-3.879,0-7.024-5.5-7.024-12.279s3.145-12.279,7.024-12.279c3.812,0,6.908,5.314,7.013,11.935.865-2.332,2.192-3.925,3.954-4.41,3.62-1,8.048,2.889,11.448,9.358a132.156,132.156,0,0,0-14.091-27.383c1.387-1.1,2.625-2.074,3.688-2.911A128.626,128.626,0,0,1,352.871,263.4Zm-23.846,32.036c.848-2.562,2.584-7.887,3.545-11.392-1.742-.228-3.651-.534-5.7-.911l-3.727,12.186q-1.457-.084-3.1-.23l3.835-12.537c-3.944-.8-8.323-1.836-13.022-3.069l-4.223,13.805c-.732-.125-1.478-.256-2.243-.4-2.18-.394-4.439-.839-6.74-1.312l4.442-14.523c-5-1.45-10.238-3.081-15.61-4.863-7.085-2.462-23.9-8.8-28.368-10.366-4.994-1.761-9.966-3.581-14.86-5.644,4.417,2.954,8.989,5.7,13.587,8.394,1.022.595,2.051,1.174,3.075,1.763-1.006-.319-2.015-.629-3.019-.952-4.932-1.6-9.846-3.252-14.7-5.113,4.405,2.766,8.937,5.355,13.493,7.891,1.013.562,2.033,1.11,3.049,1.666-1.021-.294-2.045-.581-3.063-.879-4.87-1.436-9.726-2.922-14.537-4.585,4.39,2.581,8.883,5.011,13.4,7.392,1,.527,2.009,1.041,3.013,1.562-1.034-.267-2.07-.528-3.1-.8-4.808-1.273-9.6-2.592-14.367-4.062,4.371,2.4,8.826,4.671,13.3,6.9.987.489,1.979.967,2.967,1.452-1.044-.238-2.091-.47-3.134-.713-4.745-1.109-9.48-2.262-14.192-3.544,4.349,2.224,8.767,4.337,13.2,6.408,1.289.6,2.583,1.188,3.875,1.78-9.723-2.976-19.8-6.323-30.019-9.991-8.435-3.028-16.653-6.164-24.553-9.352q.772.246,1.545.489,3.9,1.211,7.813,2.276,7.833,2.145,15.764,3.719-7.491-3.012-14.7-6.554-3.406-1.667-6.744-3.433,3.817,1.149,7.653,2.185c5.189,1.406,10.413,2.67,15.662,3.712-4.959-2.01-9.814-4.216-14.6-6.55q-3.384-1.65-6.714-3.387,3.807,1.116,7.627,2.141c5.158,1.384,10.346,2.659,15.561,3.706-4.923-2.013-9.738-4.23-14.5-6.545q-3.377-1.643-6.71-3.357,3.807,1.091,7.626,2.112c5.127,1.365,10.278,2.649,15.461,3.7-4.887-2.017-9.664-4.241-14.4-6.54q-3.361-1.629-6.685-3.324,3.795,1.065,7.6,2.079c5.095,1.347,10.21,2.638,15.36,3.7-4.85-2.021-9.59-4.252-14.306-6.535-2.5-1.214-7.267-3.455-11.89-5.652l.015-.026c-11.614-5.47-21.723-10.9-29.567-15.17-27.479-14.947-38.1-25.185-38.1-25.185S135.13,210.566,132.6,216c-1.576,3.388-.537,7.6.286,9.949-6.182-4.93-7.468-7.724-7.177-8.534a135.771,135.771,0,0,1,6.335-14.621c1.481-3.062,3.439-6.522,5.164-10.527a137.819,137.819,0,0,1-4.146-32.486A123.722,123.722,0,0,1,352.6,81.5c-1.9,1.54-4.422,3.557-7.437,5.972-18.923,15.155-57.724,46.231-76.535,65.229a44.355,44.355,0,0,0-43.628-9.9c-12.832,1.658-30.157,6.531-30.157,6.531a71.066,71.066,0,0,1-15.378-23.59,74.3,74.3,0,0,1-1.147-15.439,56.539,56.539,0,0,1,3.07-15.726,51.575,51.575,0,0,1,7.779-14.348A45.363,45.363,0,0,1,201.532,69.05a46.635,46.635,0,0,0-14.239,9.493,55.384,55.384,0,0,0-10.522,14c-.048.09-.092.183-.139.273A61.5,61.5,0,0,1,184.2,79.568a74.776,74.776,0,0,1,20.99-18.976,77.244,77.244,0,0,0-24.4,15.969,69.562,69.562,0,0,0-7.075,8.05,84.694,84.694,0,0,1,22.064-23.249,100.085,100.085,0,0,1,16.176-9.472,97.847,97.847,0,0,1,17.851-6.32,98.869,98.869,0,0,0-18.6,4.446,103.111,103.111,0,0,0-17.61,7.95,89.906,89.906,0,0,0-15.86,11.44c-1.778,1.6-3.473,3.3-5.125,5.049l.012-.1c-.482.532-.95,1.064-1.419,1.595-.634.7-1.245,1.424-1.859,2.146-.334.392-.668.785-1,1.177-.342.415-.692.823-1.027,1.245-22.619,27.682-28.381,54.465-28.011,76.726,1.54-3.4,3.867-5.647,6.658-5.931,5.739-.583,11.241,7.292,12.288,17.591s-2.756,19.121-8.5,19.705c-2.507.255-4.968-1.1-7.033-3.576.732,3.371,1.508,6.507,2.246,9.377,12.728,11.52,39.1,28.168,76.857,44.483q6.359,3.069,12.863,5.774c5.5,2.286,11.055,4.438,16.671,6.393a167.129,167.129,0,0,0,17.115,5c-8.161-3.7-16.341-7.227-24.362-11.051,2.173.595,4.351,1.167,6.549,1.663a43.265,43.265,0,0,0,8.892,1.141l-8.15-3.485q-2.238-.927-4.453-1.9c.225.035.447.084.672.117a31.8,31.8,0,0,0,8.172.222c-2.594-.871-5.094-1.725-7.591-2.612-1.7-.591-3.381-1.236-5.05-1.908.5.04,1,.078,1.507.1a26.137,26.137,0,0,0,7.375-.633c-2.4-.61-4.716-1.17-7-1.8-1.919-.507-3.8-1.112-5.657-1.784a26.529,26.529,0,0,0,8.9-1.467c-2.194-.433-4.315-.726-6.4-1.088a44.507,44.507,0,0,1-6.1-1.4c-.824-.261-1.636-.544-2.444-.835a44.117,44.117,0,0,0,29.04-6.8c7.572,18.5,21.744,38.086,22.377,38.957l.375.516.552.321c22.889,13.305,43.772,18.3,55.843,19.5-1.418,4.062-1.789,5.159-2,5.785-.277.821-.278.821-2.064,5.8C337.206,294.137,335.007,295.268,329.025,295.431Zm-179.544-176.9a2.185,2.185,0,1,1,1.678,2.869A2.365,2.365,0,0,1,149.481,118.535Zm1.205,13.348c1.982.356,3.136,3.167,2.577,6.278s-2.619,5.344-4.6,4.988-3.135-3.167-2.576-6.278S148.7,131.527,150.686,131.883ZM311.915,306.011a10.048,10.048,0,0,0,1.677-3.836c-1.434-.175-3.378-.422-5.3-.67v0a343.565,343.565,0,0,1-44.99-9.884c-14.777-4.127-29.406-8.878-43.885-14.014l-.088-.032a3.428,3.428,0,0,1,1.362,3.456c-.578,1.861-3.349,2.655-6.19,1.773s-4.677-3.1-4.1-4.965c.412-1.329,1.951-2.1,3.829-2.118-12.659-4.7-25.1-10.01-37.365-15.669-6.954-3.251-13.879-6.575-20.657-10.175-6.813-3.551-13.539-7.2-20.236-11.072a88.307,88.307,0,0,0,9.174,7.126c1.586,1.113,3.234,2.126,4.854,3.19l4.973,2.992c6.715,3.839,13.53,7.5,20.472,10.907,1.221.6,2.449,1.185,3.676,1.772-1.1-.5-2.2-1.008-3.3-1.521-6.94-3.284-13.847-6.651-20.593-10.316-6.782-3.614-13.462-7.347-20.1-11.33a87.005,87.005,0,0,0,9.078,7.259c1.576,1.13,3.209,2.171,4.821,3.249,1.643,1.022,3.285,2.053,4.947,3.046,6.685,3.905,13.485,7.612,20.417,11.054.379.189.763.37,1.143.558-8.292-3.8-15.872-7.583-22.465-11.245-19.645-10.91-23.692-16.976-23.088-18.659.175-.488.351-1.014.538-1.568.291-.866.612-1.806.983-2.769a163.642,163.642,0,0,0,17.108,10.772c19.445,10.885,46.232,22.651,75.426,33.131s57.349,18.436,79.277,22.4c5.854,1.059,10.838,1.764,15.092,2.185-.156.407-.31.818-.466,1.214-.256.65-.5,1.267-.707,1.85C316.966,304.846,315.444,305.673,311.915,306.011Zm-4.9,12.236c1.945-1.69,2.787-5.552,2.787-5.552a41.66,41.66,0,0,1-6.568.014l0-.014c-2.107-.14-4.277-.337-6.469-.578-1.63-.192-2.7-.347-2.7-.347l.016.031c-4.822-.611-9.688-1.444-14.225-2.472-7.462-1.685-14.883-3.617-22.264-5.7-14.762-4.18-29.374-8.983-43.834-14.172l-.088-.032a3.428,3.428,0,0,1,1.349,3.461c-.584,1.859-3.358,2.643-6.2,1.751s-4.666-3.121-4.082-4.979c.417-1.328,1.959-2.093,3.837-2.105-12.642-4.742-25.06-10.1-37.309-15.8-6.942-3.275-13.855-6.625-20.62-10.248-6.8-3.576-13.513-7.244-20.2-11.144a88.459,88.459,0,0,0,9.148,7.158c1.582,1.119,3.226,2.138,4.842,3.207l4.962,3.011c6.7,3.862,13.5,7.549,20.434,10.979,1.22.6,2.446,1.194,3.671,1.787-1.1-.51-2.2-1.018-3.291-1.534-6.929-3.309-13.823-6.7-20.556-10.39-6.769-3.638-13.436-7.395-20.062-11.4a87.034,87.034,0,0,0,9.052,7.292c1.572,1.136,3.2,2.183,4.81,3.265,1.639,1.029,3.277,2.066,4.936,3.064q9.693,5.711,19.731,10.8c-7.158-3.34-13.747-6.66-19.563-9.883-19.65-10.888-23.709-16.92-23.11-18.589l.474-1.338c.25-.711.565-1.6.909-2.572a6.291,6.291,0,0,0,2.706-1.1c3.418,3.585,9.806,8.439,21.561,14.968,17.074,9.482,40.585,19.769,66.2,28.965s50.3,16.209,69.508,19.75a122.04,122.04,0,0,0,21.37,2.422,40.85,40.85,0,0,0,4.605-.235,6.019,6.019,0,0,0,1.277,2.58c-.449,1.41-.818,2.361-1.081,3.038-.112.287-.2.529-.28.737C312.435,317.1,310.814,317.945,307.018,318.247Zm-39.908,13.66a19.363,19.363,0,0,1-3.229-1.879A16.068,16.068,0,0,1,261,327.493a6.321,6.321,0,0,1-1.687-3.436,8.031,8.031,0,0,0,2.831,1.961,28.971,28.971,0,0,0,3.172,1.184c1.085.34,2.188.64,3.271,1.017.544.185,1.083.389,1.628.594a9.052,9.052,0,0,1,2,1.01,19.523,19.523,0,0,1,2.4,1.888,2.148,2.148,0,0,0,.563.139,15.066,15.066,0,0,0,1.658.145c1.219.051,2.549-.016,3.915.073a16.219,16.219,0,0,1,4.16.691,5.4,5.4,0,0,1,3.273,2.66,13.513,13.513,0,0,0-3.682-.682,17.036,17.036,0,0,0-3.614.259c-1.1.183-2.237.381-3.447.553.6,1,1.17,2,1.735,3a19.071,19.071,0,0,0,1.938,3.012,11.889,11.889,0,0,1-3.266-1.814c-1-.726-1.941-1.5-2.867-2.249-.9-.772-1.853-1.475-2.679-2.22a20.6,20.6,0,0,0-2.322-2.1,5.2,5.2,0,0,0-.561-.337,4.275,4.275,0,0,0-.606-.256C268.237,332.382,267.668,332.163,267.11,331.907Zm-59.851,9.086c-25.154-21.583-45.631-35.022-56.415-39.567-1.869-1.008-3.861-2.048-5.994-3.122,0,0,17.506,1.178,66.15,33.5,0,0-8.079-11.951-40.4-32.823,0,0,27.6,8.248,63.457,39.724,0,0-3.7-10.1-37.535-35.011,0,0,31.644,14.981,55.377,38.882,0,0,12.961,15.822,29.962,50.665,0,0-20.7-23.06-22.892-27.1s-8.753-18.178-14.981-23.565c0,0,5.387,10.941,7.07,21.04C251.061,363.612,226.952,346.884,207.259,340.993ZM58.837,333.744l8.138-39.336.653-3.156,1.352-.686,39.771-20.189L72.024,294.036l14.318,16.322q-1.791.972-3.548,2.083l-12.886-14.69L63.2,329C61.6,330.668,60.134,332.273,58.837,333.744Z" transform="translate(-51.768 -30)"/><path class="cls-2" d="M197.871,135.874c-4.152,1.816-12.119-10.319-12.119-22.218s6.05-22.517,10.1-21.546c4.208,1.01,1.7,9.488,2.188,21.377C198.545,125.775,203.258,133.517,197.871,135.874Z" transform="translate(-51.768 -30)"/><path class="cls-2" d="M190.232,89.909c-1.1-.744-.556-3.469,1.215-6.087s4.1-4.138,5.2-3.394.556,3.469-1.215,6.087S191.331,90.652,190.232,89.909Z" transform="translate(-51.768 -30)"/></svg>