<?xml version="1.0" encoding="UTF-8"?>
<svg xmlns="http://www.w3.org/2000/svg" xmlns:xlink="http://www.w3.org/1999/xlink" width="133px" height="150px" viewBox="0 0 133 149" version="1.1">
<g id="surface1">
<path style=" stroke:none;fill-rule:nonzero;fill:rgb(100%,100%,100%);fill-opacity:1;" d="M 1.589844 120.074219 C 1.664062 119.980469 8.851562 110.457031 16.046875 107.683594 C 22.710938 105.113281 31.199219 105.402344 41.277344 108.539062 C 44.914062 109.839844 48.480469 111.503906 58.355469 119.90625 L 58.460938 120.03125 C 59.601562 120.453125 79.765625 128.175781 92.050781 148.378906 C 92.273438 146.683594 92.242188 139.820312 82.792969 121.242188 L 82.652344 120.972656 L 82.960938 120.964844 L 82.96875 120.964844 C 83.257812 120.964844 85.621094 121.382812 91.246094 133.777344 C 91.253906 132.769531 91.003906 130.558594 89.375 126.558594 L 89.101562 125.886719 L 89.679688 126.335938 C 89.730469 126.375 90.917969 127.328125 91.949219 129.703125 C 92.507812 129.765625 94.503906 130.433594 97.746094 136.285156 C 97.667969 134.800781 97.285156 131.480469 95.53125 128.511719 L 95.488281 128.433594 L 95.515625 128.351562 C 96.265625 125.71875 96.0625 122.90625 94.941406 120.402344 L 94.75 119.996094 L 95.179688 120.140625 C 95.292969 120.175781 98.011719 121.148438 97.769531 127.277344 C 97.988281 127.691406 99.46875 130.503906 100.0625 132.53125 C 100.675781 130.789062 100.863281 128.925781 100.613281 127.09375 L 100.59375 126.976562 L 100.6875 126.910156 C 100.796875 126.832031 103.324219 124.949219 101.847656 121.097656 L 101.617188 120.496094 L 102.144531 120.871094 C 102.175781 120.894531 105.28125 123.167969 106.679688 127.855469 C 106.855469 125.351562 106.433594 118.378906 97.792969 111.777344 L 97.386719 111.46875 L 97.898438 111.433594 C 100.933594 111.230469 101.296875 110.230469 101.449219 109.800781 C 101.472656 109.742188 101.5 109.671875 101.546875 109.554688 C 101.679688 109.207031 101.886719 108.683594 102.140625 107.824219 L 102.261719 107.410156 L 101.898438 107.175781 C 101.71875 107.058594 101.589844 106.875 101.535156 106.667969 L 101.484375 106.488281 L 101.660156 106.429688 C 102.863281 106.039062 103.074219 105.453125 103.1875 105.132812 C 103.265625 104.925781 103.351562 104.703125 103.445312 104.464844 C 103.554688 104.191406 103.671875 103.890625 103.785156 103.574219 L 103.832031 103.4375 L 103.980469 103.445312 C 104.644531 103.488281 105.269531 103.507812 105.835938 103.507812 C 110.367188 103.507812 111.34375 102.257812 111.683594 101.320312 C 112.375 99.398438 112.378906 99.390625 112.488281 99.070312 C 112.578125 98.800781 112.75 98.300781 113.484375 96.214844 L 113.523438 96.101562 L 113.648438 96.089844 C 114.648438 95.992188 115.75 95.167969 116.386719 94.039062 C 116.910156 93.164062 117.042969 92.105469 116.75 91.125 L 116.714844 91.011719 L 116.800781 90.929688 C 135.058594 73.652344 138.050781 45.78125 123.875 25.066406 L 123.804688 24.964844 L 123.867188 24.859375 C 124.734375 23.40625 123.773438 21.285156 122.507812 19.929688 C 120.90625 18.207031 118.953125 17.660156 117.410156 18.5 L 117.269531 18.578125 L 117.167969 18.453125 C 108.054688 7.332031 94.519531 0.707031 80.097656 0.3125 C 65.671875 -0.0859375 51.789062 5.777344 42.066406 16.378906 L 42.035156 16.414062 L 30.828125 20.253906 C 30.625 20.324219 30.449219 20.460938 30.328125 20.640625 L 17.214844 40.871094 C 16.933594 41.304688 17.042969 41.878906 17.460938 42.175781 L 18.667969 43.039062 L 18.59375 43.183594 C 17.761719 44.816406 18.019531 46.417969 19.375 48.078125 L 19.472656 48.199219 L 19.375 48.320312 C 17.21875 51.039062 15.535156 53.71875 14.339844 57.945312 C 13.335938 61.488281 13.5 64.394531 13.703125 68.074219 C 13.757812 69.011719 13.816406 70.074219 13.859375 71.21875 C 13.976562 74.527344 12.546875 75.746094 10.5625 77.4375 C 9.480469 78.308594 8.488281 79.285156 7.597656 80.347656 C 6.199219 82.09375 5.519531 84.300781 5.691406 86.527344 L 5.699219 86.621094 C 5.828125 88.390625 6.320312 90.113281 7.140625 91.6875 L 7.207031 91.8125 L 7.109375 91.910156 C 5.515625 93.539062 5.199219 95.355469 6.105469 97.628906 L 6.171875 97.792969 L 4.878906 98.441406 C 4.671875 98.546875 4.519531 98.742188 4.472656 98.972656 L 0.210938 119.460938 C 0.136719 119.8125 0.320312 120.167969 0.652344 120.316406 C 0.984375 120.460938 1.371094 120.359375 1.589844 120.074219 Z M 16.699219 87.464844 L 16.71875 87.246094 C 16.898438 85.054688 18.664062 83.457031 18.738281 83.390625 C 18.984375 83.171875 19.230469 82.957031 19.484375 82.738281 C 21.605469 80.90625 23.605469 79.179688 23.453125 75.050781 C 23.417969 74.042969 23.375 73.109375 23.328125 72.230469 L 23.328125 72.160156 C 23.144531 68.40625 23.011719 65.691406 23.792969 62.242188 C 24.730469 58.105469 25.5625 56.117188 27.664062 52.992188 L 27.714844 52.914062 L 27.808594 52.910156 C 28.191406 52.878906 28.566406 52.804688 28.929688 52.679688 L 29.167969 52.597656 L 29.183594 52.847656 C 29.375 55.769531 29.828125 58.667969 30.535156 61.511719 L 30.550781 61.574219 L 30.523438 61.632812 C 29.933594 62.980469 29.382812 64.109375 28.894531 65.109375 C 27.945312 66.984375 27.105469 68.914062 26.378906 70.886719 C 26.042969 71.824219 25.996094 73.394531 29.460938 76.246094 L 29.574219 76.335938 L 29.515625 76.46875 C 29.289062 77.003906 29.109375 77.523438 28.945312 78.007812 C 28.875 78.207031 28.8125 78.402344 28.746094 78.578125 C 28.636719 78.886719 28.429688 79.457031 29.054688 80.476562 L 29.15625 80.640625 L 28.988281 80.742188 C 28.773438 80.859375 28.53125 80.914062 28.285156 80.894531 L 27.859375 80.878906 L 27.714844 81.277344 C 27.515625 81.832031 27.332031 82.355469 27.191406 82.742188 L 27.011719 83.246094 C 26.84375 83.710938 26.398438 84.945312 29.722656 87.625 L 29.917969 87.78125 L 29.714844 87.929688 C 28.671875 88.742188 27.230469 88.839844 26.085938 88.171875 C 25.855469 88.023438 25.5625 88.011719 25.320312 88.132812 L 21.390625 90.117188 L 21.300781 89.957031 C 20.304688 88.214844 18.871094 87.394531 16.921875 87.457031 Z M 16.699219 87.464844 "/>
<path style=" stroke:none;fill-rule:nonzero;fill:rgb(14.901961%,14.509804%,14.509804%);fill-opacity:1;" d="M 80.125 67.574219 L 65.539062 54.28125 C 65.285156 54.042969 64.921875 53.957031 64.585938 54.058594 C 64.253906 54.164062 64 54.4375 63.925781 54.777344 C 63.851562 55.117188 63.96875 55.46875 64.230469 55.699219 L 78.652344 68.84375 C 73.394531 72.679688 66.011719 71.59375 62.101562 66.40625 C 58.191406 61.21875 59.214844 53.871094 64.394531 49.933594 L 81.652344 65.660156 C 81.210938 66.347656 80.695312 66.988281 80.125 67.574219 Z M 80.125 67.574219 "/>
<path style=" stroke:none;fill-rule:nonzero;fill:rgb(14.901961%,14.509804%,14.509804%);fill-opacity:1;" d="M 76.898438 48.71875 C 76.242188 49.839844 76.664062 51.488281 77.949219 52.578125 C 79.160156 53.609375 80.742188 53.804688 81.765625 53.140625 C 82.804688 54.824219 83.402344 56.742188 83.5 58.714844 L 71.203125 47.503906 C 71.34375 47.5 71.484375 47.496094 71.625 47.496094 C 73.453125 47.492188 75.257812 47.910156 76.898438 48.71875 Z M 76.898438 48.71875 "/>
<path style=" stroke:none;fill-rule:nonzero;fill:rgb(14.901961%,14.509804%,14.509804%);fill-opacity:1;" d="M 83.128906 62.304688 L 67.632812 48.179688 C 68.289062 47.949219 68.964844 47.773438 69.652344 47.660156 L 83.472656 60.257812 C 83.417969 60.949219 83.304688 61.632812 83.128906 62.304688 Z M 83.128906 62.304688 "/>
<path style=" stroke:none;fill-rule:nonzero;fill:rgb(14.901961%,14.509804%,14.509804%);fill-opacity:1;" d="M 87.613281 5.804688 C 94.003906 6.78125 100.035156 9.382812 105.117188 13.359375 C 107.636719 15.3125 109.851562 17.632812 111.683594 20.238281 C 109.246094 18.300781 106.703125 16.5 104.0625 14.839844 C 98.859375 11.589844 93.1875 9.144531 87.246094 7.585938 C 84.222656 6.808594 81.160156 6.191406 78.074219 5.742188 C 81.238281 5.289062 84.453125 5.308594 87.613281 5.804688 Z M 87.613281 5.804688 "/>
<path style=" stroke:none;fill-rule:nonzero;fill:rgb(14.901961%,14.509804%,14.509804%);fill-opacity:1;" d="M 92.242188 11.117188 C 94.132812 11.605469 95.972656 12.28125 97.726562 13.140625 C 99.476562 13.992188 101.144531 15.007812 102.703125 16.171875 C 104.269531 17.324219 105.691406 18.65625 106.9375 20.140625 C 105.285156 19.125 103.675781 18.117188 102.03125 17.179688 C 100.394531 16.234375 98.730469 15.351562 97.042969 14.527344 C 95.351562 13.707031 93.632812 12.953125 91.871094 12.277344 C 90.109375 11.59375 88.308594 11.007812 86.453125 10.441406 C 88.40625 10.394531 90.355469 10.621094 92.242188 11.117188 Z M 92.242188 11.117188 "/>
<path style=" stroke:none;fill-rule:nonzero;fill:rgb(14.901961%,14.509804%,14.509804%);fill-opacity:1;" d="M 0.574219 120.496094 C 0.988281 120.679688 1.476562 120.550781 1.746094 120.1875 C 1.820312 120.09375 8.972656 110.613281 16.117188 107.859375 C 22.75 105.304688 31.1875 105.597656 41.214844 108.71875 C 44.839844 110.015625 48.472656 111.746094 58.207031 120.03125 L 58.347656 120.191406 C 58.347656 120.191406 79.476562 127.707031 92.144531 148.898438 C 92.144531 148.898438 94.339844 143.503906 82.96875 121.15625 C 82.96875 121.15625 85.359375 121.09375 91.367188 134.515625 C 91.367188 134.515625 92.015625 132.523438 89.558594 126.488281 C 89.558594 126.488281 90.789062 127.449219 91.820312 129.890625 C 91.820312 129.890625 93.953125 129.570312 97.960938 137.082031 C 97.960938 137.082031 98.089844 132.460938 95.699219 128.414062 C 96.46875 125.734375 96.265625 122.867188 95.117188 120.320312 C 95.117188 120.320312 97.828125 121.222656 97.574219 127.320312 C 97.574219 127.320312 99.574219 131.046875 100.03125 133.164062 C 100.824219 131.234375 101.089844 129.132812 100.804688 127.066406 C 100.804688 127.066406 103.582031 125.074219 102.035156 121.027344 C 102.035156 121.027344 105.523438 123.53125 106.75 128.863281 C 106.75 128.863281 108.875 120 97.914062 111.625 C 101.074219 111.414062 101.464844 110.339844 101.636719 109.867188 C 101.660156 109.796875 101.695312 109.71875 101.730469 109.625 C 101.867188 109.273438 102.074219 108.742188 102.328125 107.878906 L 102.492188 107.328125 L 102.007812 107.015625 C 101.867188 106.921875 101.765625 106.777344 101.726562 106.613281 C 103.015625 106.195312 103.25 105.542969 103.375 105.203125 C 103.453125 104.992188 103.539062 104.773438 103.632812 104.539062 C 103.742188 104.261719 103.859375 103.960938 103.972656 103.640625 C 104.652344 103.683594 105.277344 103.703125 105.84375 103.703125 C 110.339844 103.703125 111.476562 102.484375 111.871094 101.386719 C 112.566406 99.453125 112.566406 99.453125 112.675781 99.136719 C 112.765625 98.871094 112.9375 98.367188 113.671875 96.285156 C 114.722656 96.183594 115.882812 95.335938 116.558594 94.140625 C 117.113281 93.214844 117.25 92.105469 116.9375 91.074219 C 135.265625 73.734375 138.269531 45.757812 124.039062 24.960938 C 124.917969 23.488281 124.085938 21.335938 122.660156 19.800781 C 120.980469 18 118.921875 17.460938 117.324219 18.332031 C 108.175781 7.171875 94.589844 0.519531 80.109375 0.121094 C 65.628906 -0.277344 51.691406 5.609375 41.933594 16.25 L 30.773438 20.074219 C 30.527344 20.160156 30.316406 20.324219 30.175781 20.539062 L 17.058594 40.769531 C 16.722656 41.289062 16.851562 41.976562 17.355469 42.335938 L 18.425781 43.097656 C 17.433594 45.054688 18.066406 46.773438 19.234375 48.199219 C 16.988281 51.03125 15.34375 53.722656 14.164062 57.894531 C 13.152344 61.464844 13.316406 64.386719 13.523438 68.085938 C 13.578125 69.074219 13.632812 70.101562 13.675781 71.226562 C 13.789062 74.441406 12.386719 75.636719 10.445312 77.289062 C 9.355469 78.167969 8.351562 79.152344 7.449219 80.222656 C 6.027344 82.011719 5.332031 84.265625 5.5 86.539062 C 5.5 86.570312 5.507812 86.601562 5.507812 86.632812 C 5.640625 88.429688 6.136719 90.179688 6.972656 91.777344 C 5.300781 93.484375 5.003906 95.375 5.929688 97.699219 L 4.796875 98.269531 C 4.535156 98.402344 4.347656 98.648438 4.285156 98.933594 L 0.0195312 119.421875 C -0.0703125 119.863281 0.15625 120.308594 0.574219 120.496094 Z M 7.65625 96.828125 C 6.863281 94.824219 7.089844 92.996094 12.511719 90.496094 C 13.773438 89.859375 15.128906 89.421875 16.523438 89.203125 C 9.5625 92.625 8.734375 94.984375 8.816406 96.242188 Z M 25.554688 100.878906 C 26.269531 100.574219 27.015625 100.339844 27.777344 100.179688 C 28.410156 100.066406 29.023438 99.875 29.609375 99.609375 C 29.667969 99.578125 29.71875 99.539062 29.777344 99.503906 L 29.863281 99.441406 C 29.921875 99.394531 29.984375 99.351562 30.050781 99.308594 C 30.261719 99.183594 30.492188 99.085938 30.730469 99.019531 C 31.136719 98.90625 31.484375 98.847656 31.8125 98.765625 C 32.132812 98.695312 32.445312 98.582031 32.730469 98.425781 C 33.046875 98.234375 33.324219 97.992188 33.550781 97.699219 C 33.578125 98.128906 33.472656 98.550781 33.242188 98.914062 C 32.996094 99.285156 32.664062 99.59375 32.277344 99.816406 C 31.9375 100.007812 31.589844 100.183594 31.230469 100.339844 C 31.109375 100.394531 30.992188 100.464844 30.886719 100.542969 L 30.714844 100.695312 C 30.621094 100.773438 30.519531 100.847656 30.414062 100.910156 C 30.015625 101.15625 29.570312 101.316406 29.109375 101.382812 C 28.703125 101.445312 28.289062 101.460938 27.878906 101.433594 C 27.074219 101.390625 26.289062 101.203125 25.554688 100.878906 Z M 25.894531 102.710938 C 25.335938 102.855469 24.765625 102.957031 24.1875 103.011719 C 23.632812 103.070312 23.074219 103.097656 22.523438 103.101562 C 21.972656 103.105469 21.421875 103.085938 20.867188 103.039062 C 20.292969 102.992188 19.722656 102.914062 19.160156 102.808594 C 19.65625 102.476562 20.214844 102.25 20.800781 102.132812 C 21.363281 102.007812 21.941406 101.949219 22.519531 101.945312 C 23.09375 101.945312 23.667969 101.996094 24.234375 102.109375 C 24.816406 102.210938 25.378906 102.414062 25.894531 102.710938 Z M 27.980469 97.074219 C 28.117188 96.191406 28.660156 95.421875 29.449219 94.996094 C 29.875 94.773438 30.347656 94.648438 30.828125 94.636719 C 31.0625 94.632812 31.296875 94.648438 31.527344 94.683594 L 32.101562 94.789062 C 32.847656 94.933594 33.570312 95.113281 34.292969 95.285156 L 36.558594 95.820312 C 35.839844 96.238281 35.027344 96.46875 34.195312 96.492188 C 33.390625 96.527344 32.585938 96.464844 31.800781 96.300781 L 31.238281 96.175781 C 31.089844 96.140625 30.9375 96.113281 30.789062 96.09375 C 30.492188 96.058594 30.191406 96.066406 29.894531 96.121094 C 29.191406 96.292969 28.539062 96.617188 27.980469 97.074219 Z M 18.964844 99.964844 C 19.175781 99.21875 19.609375 98.550781 20.207031 98.054688 C 20.785156 97.570312 21.40625 97.144531 22.066406 96.777344 C 22.375 96.597656 22.667969 96.421875 22.921875 96.25 C 22.980469 96.203125 23.042969 96.160156 23.097656 96.117188 C 23.144531 96.074219 23.191406 96.035156 23.242188 95.996094 C 23.273438 95.957031 23.304688 95.921875 23.335938 95.890625 C 23.351562 95.855469 23.371094 95.820312 23.390625 95.789062 C 23.5625 95.265625 23.636719 94.71875 23.605469 94.167969 C 23.617188 93.769531 23.65625 93.375 23.714844 92.980469 C 23.796875 92.484375 23.996094 92.011719 24.296875 91.605469 C 24.472656 91.386719 24.679688 91.195312 24.914062 91.039062 C 25.136719 90.90625 25.375 90.804688 25.625 90.730469 C 26.023438 90.625 26.4375 90.566406 26.855469 90.558594 C 27.605469 90.53125 28.292969 90.554688 28.96875 90.503906 C 29.304688 90.476562 29.640625 90.421875 29.96875 90.339844 C 30.308594 90.238281 30.632812 90.089844 30.933594 89.898438 C 30.765625 90.246094 30.523438 90.554688 30.226562 90.804688 C 29.917969 91.050781 29.578125 91.257812 29.210938 91.414062 C 28.515625 91.6875 27.796875 91.902344 27.0625 92.054688 C 26.761719 92.121094 26.46875 92.214844 26.183594 92.332031 C 26.058594 92.375 26.007812 92.453125 25.921875 92.492188 C 25.867188 92.546875 25.816406 92.609375 25.777344 92.679688 C 25.609375 92.929688 25.550781 93.542969 25.539062 94.246094 C 25.519531 94.601562 25.507812 94.984375 25.445312 95.410156 C 25.375 95.902344 25.199219 96.371094 24.929688 96.789062 C 24.84375 96.902344 24.753906 97.015625 24.660156 97.117188 C 24.5625 97.207031 24.460938 97.292969 24.359375 97.375 C 24.261719 97.441406 24.167969 97.507812 24.066406 97.566406 C 23.96875 97.625 23.875 97.667969 23.78125 97.71875 C 23.433594 97.886719 23.074219 98.03125 22.707031 98.15625 C 21.335938 98.632812 20.046875 98.917969 18.964844 99.964844 Z M 21.464844 89.859375 C 20.4375 88.058594 18.960938 87.203125 16.910156 87.265625 C 17.085938 85.152344 18.785156 83.609375 18.871094 83.535156 C 19.121094 83.3125 19.367188 83.097656 19.613281 82.886719 C 21.769531 81.027344 23.804688 79.265625 23.648438 75.046875 C 23.613281 74.011719 23.566406 73.054688 23.523438 72.15625 C 23.339844 68.414062 23.207031 65.707031 23.984375 62.289062 C 24.902344 58.226562 25.726562 56.222656 27.824219 53.101562 C 28.222656 53.074219 28.617188 52.996094 28.992188 52.867188 C 29.183594 55.796875 29.636719 58.707031 30.347656 61.558594 C 29.769531 62.878906 29.238281 63.96875 28.726562 65.019531 C 27.769531 66.90625 26.925781 68.84375 26.199219 70.824219 C 25.804688 71.917969 25.902344 73.570312 29.339844 76.394531 C 29.105469 76.945312 28.921875 77.472656 28.761719 77.945312 C 28.695312 78.148438 28.632812 78.339844 28.566406 78.515625 C 28.449219 78.847656 28.21875 79.480469 28.890625 80.574219 C 28.710938 80.675781 28.503906 80.71875 28.296875 80.703125 L 27.726562 80.679688 L 27.535156 81.214844 C 27.335938 81.765625 27.148438 82.292969 27.011719 82.679688 L 26.832031 83.183594 C 26.640625 83.714844 26.175781 85.011719 29.601562 87.773438 C 28.621094 88.539062 27.269531 88.628906 26.191406 88.007812 C 25.902344 87.820312 25.535156 87.804688 25.230469 87.957031 Z M 18.960938 51.855469 C 18.996094 51.890625 19.027344 51.925781 19.0625 51.957031 C 19.308594 52.195312 19.566406 52.421875 19.835938 52.632812 C 20.382812 53.078125 20.984375 53.453125 21.625 53.753906 C 20.890625 53.714844 20.160156 53.585938 19.457031 53.375 C 19.09375 53.269531 18.734375 53.144531 18.386719 53.003906 C 18.351562 52.992188 18.320312 52.976562 18.285156 52.960938 C 18.5 52.582031 18.726562 52.214844 18.960938 51.855469 Z M 16.027344 58.394531 C 17.132812 58.742188 18.246094 59.105469 19.320312 59.523438 C 18.105469 59.546875 16.90625 59.636719 15.695312 59.742188 C 15.785156 59.308594 15.890625 58.871094 16.019531 58.417969 Z M 15.3125 63.085938 C 15.777344 63.199219 16.234375 63.328125 16.683594 63.480469 C 17.441406 63.730469 18.171875 64.050781 18.867188 64.4375 C 18.105469 64.320312 17.328125 64.273438 16.558594 64.296875 C 16.132812 64.3125 15.710938 64.339844 15.296875 64.390625 C 15.292969 63.945312 15.296875 63.511719 15.3125 63.085938 Z M 10.398438 79.902344 C 10.847656 80.089844 11.277344 80.320312 11.683594 80.589844 C 12.4375 81.085938 13.078125 81.738281 13.554688 82.5 C 12.90625 81.957031 12.148438 81.5625 11.328125 81.335938 C 10.636719 81.136719 9.910156 81.074219 9.195312 81.152344 C 9.570312 80.714844 9.972656 80.296875 10.398438 79.898438 Z M 8.304688 82.402344 C 8.933594 82.46875 9.550781 82.601562 10.148438 82.804688 C 11.132812 83.125 12.035156 83.65625 12.792969 84.359375 C 11.921875 83.910156 10.964844 83.65625 9.988281 83.617188 C 9.214844 83.574219 8.441406 83.664062 7.695312 83.878906 C 7.839844 83.367188 8.042969 82.871094 8.304688 82.402344 Z M 7.449219 85.226562 C 7.96875 85.027344 8.515625 84.902344 9.066406 84.84375 C 10.324219 84.683594 11.597656 84.964844 12.664062 85.640625 C 10.859375 85.035156 8.867188 85.441406 7.445312 86.703125 C 7.40625 86.210938 7.40625 85.71875 7.449219 85.226562 Z M 15.449219 67.976562 C 15.445312 67.933594 15.445312 67.894531 15.441406 67.851562 C 15.910156 67.886719 16.375 67.949219 16.835938 68.039062 C 17.589844 68.175781 18.320312 68.425781 18.996094 68.78125 C 18.273438 68.699219 17.539062 68.730469 16.820312 68.867188 C 16.378906 68.949219 15.945312 69.054688 15.515625 69.191406 C 15.492188 68.78125 15.472656 68.375 15.449219 67.976562 Z M 19.109375 71.292969 C 18.394531 71.144531 17.664062 71.105469 16.9375 71.179688 C 16.488281 71.21875 16.042969 71.289062 15.605469 71.382812 C 15.605469 71.308594 15.605469 71.234375 15.605469 71.15625 C 15.589844 70.765625 15.574219 70.394531 15.558594 70.027344 C 16.054688 70.105469 16.546875 70.214844 17.027344 70.355469 C 17.765625 70.5625 18.46875 70.878906 19.109375 71.292969 Z M 19.253906 74.050781 C 18.535156 73.761719 17.773438 73.585938 16.996094 73.527344 C 16.472656 73.480469 15.945312 73.472656 15.421875 73.503906 C 15.515625 73.042969 15.574219 72.578125 15.597656 72.109375 C 16.152344 72.277344 16.695312 72.484375 17.222656 72.730469 C 17.964844 73.066406 18.648438 73.511719 19.253906 74.050781 Z M 19.523438 78.03125 C 19.792969 78.273438 19.820312 78.683594 19.582031 78.960938 C 19.347656 79.234375 18.933594 79.273438 18.652344 79.046875 C 18.367188 78.824219 18.3125 78.414062 18.53125 78.125 C 18.78125 77.828125 19.222656 77.789062 19.523438 78.03125 Z M 19.492188 75.445312 C 19.507812 75.144531 19.707031 74.886719 19.996094 74.792969 C 20.28125 74.695312 20.597656 74.789062 20.792969 75.023438 C 20.984375 75.253906 21.011719 75.582031 20.863281 75.84375 C 20.710938 76.105469 20.414062 76.25 20.117188 76.207031 C 19.734375 76.167969 19.453125 75.828125 19.492188 75.449219 Z M 20.839844 72.640625 C 20.828125 72.890625 20.664062 73.101562 20.425781 73.179688 C 20.191406 73.257812 19.929688 73.183594 19.769531 72.992188 C 19.613281 72.800781 19.589844 72.53125 19.714844 72.316406 C 19.835938 72.101562 20.082031 71.984375 20.328125 72.019531 C 20.640625 72.050781 20.871094 72.332031 20.839844 72.644531 Z M 19.625 69.792969 C 19.636719 69.5625 19.789062 69.363281 20.007812 69.292969 C 20.226562 69.21875 20.46875 69.289062 20.613281 69.46875 C 20.761719 69.644531 20.78125 69.894531 20.667969 70.09375 C 20.554688 70.292969 20.328125 70.402344 20.097656 70.367188 C 19.808594 70.339844 19.59375 70.082031 19.621094 69.792969 Z M 19.648438 67.335938 C 19.660156 67.121094 19.804688 66.9375 20.007812 66.871094 C 20.214844 66.800781 20.441406 66.867188 20.578125 67.035156 C 20.714844 67.199219 20.734375 67.433594 20.628906 67.621094 C 20.519531 67.808594 20.308594 67.910156 20.09375 67.878906 C 19.824219 67.851562 19.625 67.609375 19.648438 67.339844 Z M 19.820312 65.027344 C 19.832031 64.8125 19.972656 64.625 20.179688 64.558594 C 20.382812 64.492188 20.609375 64.554688 20.746094 64.722656 C 20.882812 64.890625 20.902344 65.121094 20.796875 65.308594 C 20.691406 65.496094 20.480469 65.597656 20.265625 65.566406 C 19.992188 65.539062 19.796875 65.296875 19.820312 65.027344 Z M 20.132812 62.929688 C 20.144531 62.714844 20.289062 62.53125 20.492188 62.460938 C 20.699219 62.394531 20.925781 62.460938 21.0625 62.625 C 21.199219 62.792969 21.21875 63.027344 21.113281 63.214844 C 21.007812 63.402344 20.792969 63.503906 20.582031 63.472656 C 20.308594 63.445312 20.109375 63.203125 20.132812 62.933594 Z M 20.492188 60.792969 C 20.507812 60.554688 20.664062 60.351562 20.890625 60.277344 C 21.117188 60.203125 21.367188 60.273438 21.519531 60.457031 C 21.671875 60.640625 21.691406 60.898438 21.574219 61.105469 C 21.457031 61.3125 21.222656 61.425781 20.988281 61.390625 C 20.683594 61.363281 20.464844 61.097656 20.492188 60.796875 Z M 20.976562 58.664062 C 21.027344 58.433594 21.21875 58.257812 21.457031 58.222656 C 21.695312 58.1875 21.929688 58.300781 22.046875 58.507812 C 22.167969 58.71875 22.144531 58.976562 21.992188 59.160156 C 21.839844 59.34375 21.585938 59.417969 21.359375 59.339844 C 21.066406 59.261719 20.894531 58.957031 20.972656 58.667969 Z M 21.574219 56.65625 C 21.636719 56.390625 21.855469 56.191406 22.125 56.152344 C 22.398438 56.113281 22.664062 56.246094 22.796875 56.480469 C 22.933594 56.71875 22.90625 57.011719 22.730469 57.222656 C 22.558594 57.433594 22.269531 57.515625 22.011719 57.429688 C 21.679688 57.335938 21.484375 56.992188 21.574219 56.660156 Z M 22.414062 54.914062 C 22.5 54.675781 22.726562 54.511719 22.988281 54.503906 C 23.246094 54.496094 23.480469 54.648438 23.578125 54.886719 C 23.679688 55.125 23.621094 55.398438 23.433594 55.574219 C 23.246094 55.75 22.96875 55.796875 22.734375 55.6875 C 22.433594 55.5625 22.289062 55.21875 22.414062 54.917969 Z M 23.503906 53.367188 C 23.554688 53.160156 23.734375 53.003906 23.945312 52.976562 C 24.160156 52.953125 24.371094 53.058594 24.472656 53.25 C 24.574219 53.4375 24.546875 53.671875 24.40625 53.832031 C 24.265625 53.996094 24.039062 54.054688 23.835938 53.984375 C 23.574219 53.902344 23.425781 53.628906 23.503906 53.371094 Z M 17.597656 81.191406 C 17.453125 81.429688 17.179688 81.550781 16.90625 81.503906 C 16.632812 81.453125 16.417969 81.246094 16.367188 80.976562 C 16.3125 80.707031 16.433594 80.429688 16.667969 80.285156 C 16.902344 80.136719 17.203125 80.152344 17.425781 80.316406 C 17.714844 80.511719 17.792969 80.902344 17.597656 81.191406 Z M 9.636719 88.050781 C 9.015625 88.429688 8.492188 88.941406 8.09375 89.546875 C 7.921875 89.085938 7.78125 88.609375 7.667969 88.128906 C 8.164062 87.777344 8.707031 87.496094 9.28125 87.300781 C 10.464844 86.855469 11.769531 86.839844 12.96875 87.253906 C 11.796875 87.121094 10.617188 87.402344 9.636719 88.050781 Z M 14.011719 86.273438 C 14.222656 86.324219 14.351562 86.535156 14.304688 86.746094 C 14.257812 86.957031 14.050781 87.09375 13.839844 87.054688 C 13.625 87.015625 13.480469 86.816406 13.511719 86.601562 C 13.535156 86.492188 13.597656 86.394531 13.691406 86.332031 C 13.785156 86.273438 13.902344 86.25 14.011719 86.273438 Z M 13.765625 85.292969 C 13.792969 85.109375 13.929688 84.964844 14.109375 84.925781 C 14.289062 84.886719 14.472656 84.964844 14.574219 85.117188 C 14.675781 85.269531 14.671875 85.464844 14.566406 85.617188 C 14.460938 85.765625 14.273438 85.832031 14.09375 85.789062 C 13.984375 85.765625 13.886719 85.699219 13.824219 85.609375 C 13.765625 85.515625 13.742188 85.402344 13.765625 85.292969 Z M 14.21875 83.882812 C 14.300781 83.703125 14.488281 83.59375 14.6875 83.605469 C 14.886719 83.613281 15.054688 83.746094 15.117188 83.933594 C 15.179688 84.125 15.117188 84.328125 14.960938 84.453125 C 14.804688 84.578125 14.589844 84.59375 14.417969 84.496094 C 14.195312 84.378906 14.105469 84.109375 14.21875 83.886719 Z M 15.042969 82.183594 C 15.175781 81.96875 15.425781 81.855469 15.675781 81.898438 C 15.925781 81.945312 16.121094 82.136719 16.171875 82.382812 C 16.21875 82.632812 16.109375 82.882812 15.894531 83.015625 C 15.679688 83.152344 15.40625 83.140625 15.203125 82.992188 C 14.933594 82.808594 14.863281 82.449219 15.042969 82.183594 Z M 15.089844 77.953125 C 14.5 77.695312 13.890625 77.492188 13.261719 77.34375 C 13.617188 76.992188 13.945312 76.613281 14.242188 76.207031 C 14.703125 76.527344 15.140625 76.882812 15.554688 77.265625 C 16.179688 77.828125 16.714844 78.484375 17.140625 79.207031 C 16.527344 78.6875 15.835938 78.265625 15.089844 77.953125 Z M 15.238281 74.21875 C 15.804688 74.453125 16.355469 74.726562 16.878906 75.042969 C 17.605469 75.46875 18.265625 76 18.835938 76.621094 C 18.125 76.238281 17.359375 75.964844 16.566406 75.8125 C 15.933594 75.679688 15.285156 75.605469 14.636719 75.59375 C 14.886719 75.15625 15.089844 74.699219 15.238281 74.21875 Z M 19.089844 66.15625 C 18.316406 66.183594 17.546875 66.28125 16.792969 66.449219 C 16.320312 66.554688 15.847656 66.683594 15.386719 66.835938 C 15.363281 66.375 15.34375 65.925781 15.328125 65.492188 C 15.8125 65.515625 16.289062 65.558594 16.765625 65.621094 C 17.554688 65.726562 18.335938 65.90625 19.089844 66.15625 Z M 16.800781 56.078125 C 17.167969 56.285156 17.558594 56.488281 17.941406 56.691406 C 18.574219 57.027344 19.210938 57.371094 19.8125 57.753906 C 19.109375 57.625 18.40625 57.554688 17.699219 57.484375 C 17.253906 57.441406 16.808594 57.402344 16.351562 57.34375 C 16.492188 56.902344 16.644531 56.480469 16.800781 56.078125 Z M 17.804688 53.832031 C 18.71875 54.472656 19.710938 55 20.75 55.410156 C 19.566406 55.425781 18.382812 55.300781 17.226562 55.039062 C 17.410156 54.621094 17.605469 54.222656 17.804688 53.832031 Z M 19.519531 51.03125 C 19.753906 50.699219 19.996094 50.367188 20.246094 50.039062 C 20.464844 50.285156 20.699219 50.519531 20.945312 50.742188 C 21.460938 51.226562 22.03125 51.644531 22.648438 51.988281 C 21.917969 51.894531 21.203125 51.714844 20.515625 51.453125 C 20.175781 51.328125 19.84375 51.1875 19.519531 51.03125 Z M 12.546875 78.019531 C 12.921875 78.292969 13.277344 78.585938 13.617188 78.902344 C 14.238281 79.464844 14.777344 80.121094 15.203125 80.84375 C 14.585938 80.324219 13.894531 79.902344 13.152344 79.589844 C 12.589844 79.34375 12.007812 79.144531 11.410156 79 L 11.699219 78.753906 C 11.988281 78.507812 12.269531 78.265625 12.546875 78.019531 Z M 15.515625 60.75 C 15.992188 60.847656 16.457031 60.964844 16.914062 61.101562 C 17.632812 61.3125 18.332031 61.59375 18.996094 61.929688 C 18.273438 61.863281 17.546875 61.859375 16.824219 61.925781 C 16.332031 61.96875 15.847656 62.039062 15.363281 62.132812 C 15.398438 61.671875 15.445312 61.214844 15.515625 60.75 Z M 20.003906 44.230469 L 21.902344 45.585938 C 21.832031 46.578125 22.515625 48.296875 26.757812 51.085938 C 25.835938 50.871094 24.667969 50.261719 23 49.035156 C 19.746094 46.636719 19.609375 45.183594 20.003906 44.230469 Z M 31.5625 22.65625 L 31.902344 22.128906 L 32.765625 21.832031 L 38.558594 19.847656 L 33.285156 22.578125 L 35.183594 25.316406 L 32.476562 23.328125 L 21.386719 40.65625 L 22.511719 41.722656 L 31.554688 29.578125 L 23.828125 42.972656 L 28.664062 47.5625 L 23.363281 43.777344 L 21.808594 42.671875 L 19.605469 41.097656 Z M 120.945312 21.367188 C 121.289062 21.734375 121.578125 22.148438 121.796875 22.601562 C 119.511719 24.378906 93.957031 44.300781 86.8125 51.605469 C 86.585938 51.167969 86.34375 50.746094 86.085938 50.332031 C 92.367188 44.582031 101.675781 36.734375 109.652344 30.304688 C 109.179688 29.699219 108.671875 29.128906 108.132812 28.585938 C 108.542969 28.257812 108.949219 27.929688 109.34375 27.613281 C 109.882812 28.15625 110.386719 28.730469 110.859375 29.332031 C 111.320312 28.957031 111.78125 28.59375 112.230469 28.234375 C 111.753906 27.636719 111.238281 27.070312 110.6875 26.535156 C 111.328125 26.027344 111.9375 25.539062 112.515625 25.078125 C 113.058594 25.621094 113.570312 26.191406 114.050781 26.792969 C 115.082031 25.976562 116.070312 25.207031 117 24.484375 C 116.523438 23.867188 115.980469 23.300781 115.378906 22.796875 C 116.765625 21.695312 117.765625 20.890625 118.226562 20.5 C 119.261719 19.621094 120.773438 21.1875 120.945312 21.367188 Z M 71.625 44.667969 C 79.761719 44.667969 86.359375 51.226562 86.359375 59.3125 C 86.359375 67.398438 79.761719 73.953125 71.625 73.953125 C 63.488281 73.953125 56.894531 67.398438 56.894531 59.3125 C 56.902344 51.230469 63.492188 44.679688 71.625 44.667969 Z M 91.179688 86.871094 C 90.277344 85.605469 85.269531 78.46875 82.777344 72.125 C 83.214844 71.75 83.628906 71.351562 84.027344 70.933594 C 86.96875 77.878906 92.222656 85.097656 92.460938 85.421875 L 92.59375 85.605469 L 92.785156 85.726562 C 102.59375 91.769531 113.691406 92.992188 114.160156 93.042969 L 114.476562 93.074219 C 114.25 93.492188 113.882812 93.816406 113.445312 93.992188 C 109.84375 94.027344 101.097656 92.546875 91.179688 86.871094 Z M 120.308594 29.273438 C 120.757812 29.1875 121.246094 29.753906 121.394531 30.535156 C 121.542969 31.316406 121.300781 32.019531 120.851562 32.101562 C 120.402344 32.1875 119.914062 31.621094 119.765625 30.839844 C 119.617188 30.058594 119.859375 29.355469 120.308594 29.273438 Z M 102.753906 51.414062 C 103.300781 51.113281 103.8125 50.75 104.269531 50.328125 C 104.535156 50.101562 104.828125 49.910156 105.140625 49.757812 C 105.230469 49.714844 105.320312 49.679688 105.414062 49.648438 L 105.484375 49.625 C 105.511719 49.617188 105.53125 49.609375 105.527344 49.609375 C 105.527344 49.601562 105.53125 49.597656 105.535156 49.597656 C 105.546875 49.597656 105.558594 49.570312 105.578125 49.5625 C 105.597656 49.527344 105.621094 49.515625 105.644531 49.472656 C 105.761719 49.261719 105.847656 49.03125 105.898438 48.796875 C 105.964844 48.527344 106.015625 48.238281 106.0625 47.941406 C 106.152344 47.347656 106.214844 46.734375 106.292969 46.066406 C 106.667969 46.628906 106.902344 47.277344 106.972656 47.949219 C 107.015625 48.292969 107.019531 48.636719 106.984375 48.984375 C 106.945312 49.375 106.824219 49.75 106.625 50.089844 C 106.558594 50.191406 106.480469 50.285156 106.398438 50.375 C 106.296875 50.46875 106.183594 50.550781 106.058594 50.617188 C 105.988281 50.644531 105.917969 50.671875 105.847656 50.695312 C 105.824219 50.703125 105.800781 50.710938 105.777344 50.714844 L 105.730469 50.726562 C 105.675781 50.734375 105.617188 50.757812 105.554688 50.773438 C 105.28125 50.871094 105.011719 50.980469 104.75 51.105469 C 104.140625 51.433594 103.433594 51.542969 102.753906 51.414062 Z M 103.886719 58.933594 C 103.960938 58.722656 104.015625 58.523438 104.070312 58.320312 C 104.121094 58.117188 104.167969 57.910156 104.210938 57.691406 C 104.261719 57.445312 104.292969 57.199219 104.304688 56.953125 C 104.5625 57.105469 104.75 57.355469 104.816406 57.644531 C 104.894531 57.929688 104.894531 58.226562 104.820312 58.511719 C 104.695312 59.097656 104.222656 59.546875 103.625 59.648438 Z M 105.761719 55.1875 C 105.707031 55.457031 105.570312 55.703125 105.371094 55.890625 C 105.273438 55.621094 105.214844 55.402344 105.152344 55.183594 C 105.09375 54.964844 105.050781 54.761719 105.007812 54.554688 C 104.964844 54.347656 104.925781 54.144531 104.886719 53.925781 C 104.851562 53.707031 104.8125 53.480469 104.789062 53.195312 C 105.050781 53.28125 105.28125 53.449219 105.441406 53.675781 C 105.601562 53.890625 105.710938 54.136719 105.765625 54.398438 C 105.820312 54.660156 105.820312 54.925781 105.761719 55.1875 Z M 104.828125 67.691406 C 104.460938 68.492188 103.953125 69.21875 103.324219 69.84375 C 102.765625 70.417969 102.230469 71.019531 101.730469 71.644531 C 101.242188 72.308594 100.792969 73 100.378906 73.714844 C 100.371094 72.835938 100.566406 71.96875 100.949219 71.175781 C 101.34375 70.398438 101.855469 69.6875 102.46875 69.0625 C 103.035156 68.503906 103.554688 67.902344 104.023438 67.261719 C 104.472656 66.582031 104.839844 65.851562 105.128906 65.089844 C 105.277344 65.96875 105.171875 66.871094 104.828125 67.691406 Z M 99.941406 63.261719 C 99.609375 62.894531 99.296875 62.507812 99.011719 62.105469 C 98.734375 61.722656 98.476562 61.347656 98.222656 60.972656 L 96.648438 58.636719 C 97.183594 58.683594 97.691406 58.882812 98.117188 59.207031 C 98.539062 59.515625 98.902344 59.894531 99.191406 60.328125 C 99.476562 60.753906 99.695312 61.222656 99.835938 61.71875 C 99.984375 62.21875 100.023438 62.746094 99.941406 63.261719 Z M 110.109375 53.144531 C 110.117188 53.171875 110.132812 53.21875 110.152344 53.273438 C 110.191406 53.375 110.25 53.5 110.308594 53.621094 C 110.433594 53.871094 110.578125 54.132812 110.730469 54.394531 C 111.347656 55.441406 112.054688 56.492188 112.753906 57.542969 C 113.441406 58.597656 114.152344 59.65625 114.816406 60.761719 C 115.148438 61.316406 115.476562 61.875 115.78125 62.484375 C 115.859375 62.640625 115.9375 62.800781 116.007812 62.96875 C 116.082031 63.136719 116.144531 63.308594 116.199219 63.480469 C 116.316406 63.832031 116.394531 64.191406 116.4375 64.558594 C 116.53125 65.34375 116.402344 66.144531 116.0625 66.859375 C 115.710938 67.53125 115.21875 68.117188 114.613281 68.574219 C 114.339844 68.789062 114.054688 68.988281 113.753906 69.167969 C 113.460938 69.351562 113.164062 69.519531 112.855469 69.671875 C 112.542969 69.828125 112.222656 69.96875 111.894531 70.089844 C 111.628906 70.171875 111.375 70.277344 111.128906 70.402344 C 111.050781 70.445312 111.046875 70.484375 111.019531 70.515625 C 110.996094 70.5625 110.964844 70.621094 110.933594 70.710938 C 110.847656 70.941406 110.78125 71.175781 110.734375 71.417969 C 110.695312 71.605469 110.691406 71.800781 110.726562 71.988281 C 110.757812 72.207031 110.816406 72.421875 110.902344 72.625 L 111.242188 73.394531 C 111.398438 73.742188 111.507812 74.109375 111.578125 74.480469 C 111.628906 74.765625 111.613281 75.058594 111.527344 75.335938 C 111.476562 75.492188 111.398438 75.636719 111.292969 75.761719 C 111.253906 75.8125 111.210938 75.855469 111.164062 75.894531 C 111.125 75.933594 111.085938 75.960938 111.046875 75.992188 C 110.769531 76.207031 110.476562 76.40625 110.175781 76.589844 C 109.894531 76.769531 109.625 76.945312 109.371094 77.140625 C 109.125 77.332031 108.90625 77.558594 108.726562 77.8125 C 108.78125 77.863281 108.859375 77.945312 108.929688 78.027344 C 109.03125 78.136719 109.128906 78.269531 109.230469 78.40625 C 109.453125 78.722656 109.621094 79.070312 109.730469 79.4375 C 109.800781 79.671875 109.835938 79.917969 109.832031 80.164062 C 109.828125 80.464844 109.738281 80.757812 109.574219 81.011719 C 109.535156 81.074219 109.492188 81.132812 109.441406 81.183594 L 109.371094 81.257812 L 109.328125 81.300781 L 109.140625 81.46875 L 108.765625 81.789062 C 108.515625 82 108.257812 82.195312 108.007812 82.394531 C 107.507812 82.777344 107.027344 83.1875 106.574219 83.625 C 106.464844 83.726562 106.363281 83.839844 106.273438 83.957031 C 106.195312 84.074219 106.144531 84.203125 106.121094 84.339844 C 106.09375 84.472656 106.097656 84.59375 106.085938 84.699219 L 106.035156 85.019531 C 105.976562 85.472656 106.199219 86.132812 106.214844 86.820312 C 106.25 87.503906 106.054688 88.179688 105.667969 88.742188 C 105.746094 88.136719 105.695312 87.519531 105.511719 86.933594 C 105.417969 86.65625 105.304688 86.382812 105.1875 86.078125 C 105.042969 85.742188 104.957031 85.390625 104.921875 85.027344 C 104.898438 84.820312 104.921875 84.609375 104.992188 84.410156 C 105.0625 84.21875 105.171875 84.042969 105.3125 83.894531 C 105.441406 83.75 105.578125 83.625 105.695312 83.496094 C 105.8125 83.367188 105.917969 83.238281 106.027344 83.117188 C 106.457031 82.632812 106.878906 82.148438 107.289062 81.664062 L 107.886719 80.933594 L 108.171875 80.570312 C 108.25 80.40625 108.253906 80.21875 108.183594 80.050781 L 107.738281 79.4375 C 107.660156 79.316406 107.570312 79.191406 107.484375 79.046875 C 107.382812 78.871094 107.296875 78.6875 107.226562 78.496094 L 107.191406 78.390625 C 107.175781 78.347656 107.164062 78.300781 107.15625 78.253906 L 107.140625 78.175781 C 107.136719 78.140625 107.132812 78.101562 107.128906 78.0625 C 107.125 77.96875 107.132812 77.871094 107.152344 77.773438 C 107.183594 77.640625 107.25 77.511719 107.339844 77.40625 C 107.386719 77.351562 107.441406 77.300781 107.503906 77.253906 C 107.664062 77.140625 107.839844 77.042969 108.019531 76.964844 C 108.324219 76.839844 108.617188 76.683594 108.890625 76.5 C 109.144531 76.320312 109.382812 76.117188 109.601562 75.898438 C 109.816406 75.632812 109.953125 75.308594 109.984375 74.96875 C 109.878906 74.828125 109.683594 74.605469 109.503906 74.34375 C 109.300781 74.050781 109.132812 73.742188 108.996094 73.414062 C 108.832031 73.035156 108.722656 72.632812 108.679688 72.226562 C 108.636719 71.785156 108.679688 71.34375 108.804688 70.917969 C 108.921875 70.546875 109.074219 70.1875 109.265625 69.847656 C 109.394531 69.636719 109.546875 69.441406 109.722656 69.269531 C 109.921875 69.089844 110.148438 68.945312 110.398438 68.847656 C 110.738281 68.730469 111.089844 68.644531 111.445312 68.585938 C 111.730469 68.53125 112.007812 68.457031 112.28125 68.367188 C 112.828125 68.171875 113.339844 67.898438 113.808594 67.554688 C 114.242188 67.265625 114.558594 66.832031 114.703125 66.332031 C 114.800781 65.855469 114.761719 65.359375 114.589844 64.902344 C 114.515625 64.65625 114.417969 64.40625 114.320312 64.148438 L 114.160156 63.78125 C 114.105469 63.664062 114.042969 63.535156 113.972656 63.410156 C 113.699219 62.894531 113.375 62.367188 113.042969 61.84375 L 111.007812 58.664062 C 110.335938 57.585938 109.65625 56.507812 109.019531 55.355469 C 108.863281 55.0625 108.707031 54.765625 108.558594 54.445312 C 108.484375 54.285156 108.414062 54.113281 108.347656 53.921875 C 108.308594 53.816406 108.277344 53.707031 108.25 53.597656 C 108.210938 53.433594 108.191406 53.265625 108.195312 53.101562 C 108.199219 53.023438 108.210938 52.945312 108.230469 52.871094 C 108.25 52.816406 108.265625 52.761719 108.285156 52.707031 C 108.328125 52.613281 108.378906 52.519531 108.433594 52.433594 L 108.6875 51.953125 C 108.851562 51.65625 109.035156 51.378906 109.199219 51.101562 C 109.503906 50.554688 109.757812 49.980469 109.949219 49.386719 C 110.15625 48.832031 110.292969 48.257812 110.355469 47.671875 C 110.367188 47.539062 110.371094 47.40625 110.363281 47.273438 L 110.355469 47.085938 C 110.34375 47.042969 110.339844 47.011719 110.324219 46.96875 C 110.25 46.757812 110.148438 46.554688 110.019531 46.375 C 109.6875 45.910156 109.320312 45.476562 108.921875 45.070312 C 108.503906 44.632812 108.074219 44.191406 107.636719 43.6875 C 107.527344 43.5625 107.414062 43.433594 107.304688 43.285156 C 107.171875 43.117188 107.050781 42.9375 106.949219 42.753906 C 106.914062 42.6875 106.878906 42.621094 106.851562 42.550781 L 106.796875 42.394531 C 106.757812 42.289062 106.738281 42.199219 106.710938 42.101562 C 106.667969 41.925781 106.632812 41.75 106.609375 41.570312 C 106.484375 40.28125 106.472656 38.980469 106.582031 37.6875 C 107.617188 38.644531 108.105469 40.011719 108.476562 41.140625 L 108.617188 41.527344 C 108.640625 41.578125 108.664062 41.640625 108.6875 41.683594 L 108.71875 41.746094 C 108.730469 41.769531 108.726562 41.75 108.726562 41.757812 C 108.753906 41.796875 108.835938 41.898438 108.921875 41.996094 L 109.203125 42.320312 C 109.609375 42.765625 110.054688 43.246094 110.457031 43.773438 C 110.898438 44.320312 111.273438 44.917969 111.574219 45.550781 C 111.75 45.925781 111.863281 46.324219 111.910156 46.734375 C 111.921875 46.851562 111.925781 46.96875 111.917969 47.085938 L 111.886719 47.371094 C 111.859375 47.554688 111.824219 47.738281 111.78125 47.917969 C 111.605469 48.570312 111.371094 49.210938 111.089844 49.828125 C 110.808594 50.40625 110.558594 50.996094 110.34375 51.601562 C 110.253906 51.902344 110.1875 52.210938 110.121094 52.5 C 110.085938 52.636719 110.070312 52.777344 110.066406 52.917969 C 110.070312 52.980469 110.078125 53.042969 110.089844 53.101562 C 110.097656 53.125 110.101562 53.148438 110.101562 53.171875 C 110.101562 53.179688 110.09375 53.25 110.101562 53.175781 C 110.109375 53.105469 110.097656 53.113281 110.109375 53.144531 Z M 115.585938 89.148438 C 119.316406 85.097656 122.242188 80.339844 124.617188 74.964844 C 129.027344 65.023438 130.058594 53.925781 127.550781 43.351562 C 127.914062 46.570312 127.222656 49.136719 125.6875 49.558594 C 123.734375 50.09375 121.164062 46.957031 119.945312 42.554688 C 119.523438 41.078125 119.3125 39.546875 119.316406 38.011719 C 118.835938 39.28125 118.007812 40.117188 117.066406 40.117188 C 115.578125 40.117188 114.371094 38.019531 114.371094 35.433594 C 114.371094 32.847656 115.578125 30.75 117.066406 30.75 C 118.53125 30.75 119.71875 32.777344 119.757812 35.304688 C 120.089844 34.414062 120.601562 33.804688 121.277344 33.621094 C 122.664062 33.238281 124.367188 34.722656 125.671875 37.191406 C 124.285156 33.511719 122.46875 30.003906 120.261719 26.742188 C 120.792969 26.324219 121.269531 25.953125 121.675781 25.632812 C 135.664062 45.40625 133.078125 72.359375 115.585938 89.152344 Z M 106.429688 101.371094 C 106.757812 100.394531 107.421875 98.363281 107.792969 97.027344 C 107.125 96.9375 106.390625 96.820312 105.605469 96.679688 L 104.171875 101.328125 C 103.800781 101.304688 103.402344 101.277344 102.984375 101.238281 L 104.457031 96.457031 C 102.941406 96.152344 101.261719 95.757812 99.457031 95.285156 L 97.835938 100.550781 C 97.554688 100.503906 97.269531 100.453125 96.972656 100.398438 C 96.136719 100.25 95.269531 100.078125 94.386719 99.898438 L 96.09375 94.359375 C 94.171875 93.804688 92.164062 93.183594 90.101562 92.503906 C 87.378906 91.5625 80.925781 89.144531 79.210938 88.546875 C 77.292969 87.875 75.382812 87.179688 73.503906 86.394531 C 75.203125 87.523438 76.957031 88.570312 78.722656 89.597656 C 79.113281 89.824219 79.507812 90.046875 79.902344 90.269531 C 79.515625 90.148438 79.128906 90.03125 78.742188 89.90625 C 76.851562 89.296875 74.964844 88.664062 73.101562 87.957031 C 74.789062 89.011719 76.53125 90 78.28125 90.964844 C 78.667969 91.179688 79.058594 91.390625 79.449219 91.601562 C 79.058594 91.488281 78.664062 91.378906 78.273438 91.265625 C 76.40625 90.71875 74.539062 90.152344 72.695312 89.515625 C 74.378906 90.503906 76.105469 91.429688 77.835938 92.335938 C 78.222656 92.539062 78.609375 92.734375 78.996094 92.933594 C 78.597656 92.832031 78.199219 92.730469 77.804688 92.628906 C 75.957031 92.144531 74.121094 91.640625 72.289062 91.078125 C 73.96875 91.996094 75.675781 92.859375 77.394531 93.710938 C 77.773438 93.898438 78.15625 94.082031 78.535156 94.265625 C 78.132812 94.175781 77.730469 94.085938 77.332031 93.992188 C 75.507812 93.570312 73.691406 93.128906 71.882812 92.640625 C 73.550781 93.488281 75.25 94.296875 76.949219 95.085938 C 77.445312 95.316406 77.941406 95.539062 78.4375 95.765625 C 74.703125 94.628906 70.835938 93.351562 66.914062 91.953125 C 63.675781 90.796875 60.519531 89.601562 57.488281 88.386719 C 57.6875 88.449219 57.882812 88.507812 58.082031 88.570312 C 59.078125 88.878906 60.078125 89.167969 61.082031 89.441406 C 63.085938 89.984375 65.101562 90.457031 67.132812 90.859375 C 65.214844 90.09375 63.335938 89.257812 61.488281 88.359375 C 60.617188 87.933594 59.753906 87.496094 58.898438 87.046875 C 59.878906 87.339844 60.855469 87.617188 61.839844 87.882812 C 63.832031 88.417969 65.835938 88.902344 67.851562 89.296875 C 65.945312 88.53125 64.082031 87.691406 62.246094 86.800781 C 61.378906 86.378906 60.519531 85.949219 59.667969 85.507812 C 60.644531 85.789062 61.617188 86.0625 62.597656 86.324219 C 64.578125 86.851562 66.566406 87.339844 68.570312 87.738281 C 66.679688 86.96875 64.832031 86.125 63.003906 85.242188 C 62.140625 84.824219 61.28125 84.394531 60.429688 83.960938 C 61.402344 84.238281 62.378906 84.507812 63.355469 84.765625 C 65.324219 85.285156 67.300781 85.777344 69.289062 86.175781 C 67.414062 85.40625 65.582031 84.558594 63.761719 83.683594 C 62.902344 83.269531 62.046875 82.84375 61.195312 82.414062 C 62.167969 82.683594 63.140625 82.949219 64.113281 83.207031 C 66.070312 83.722656 68.035156 84.214844 70.011719 84.617188 C 68.148438 83.847656 66.328125 82.996094 64.519531 82.125 C 63.558594 81.664062 61.730469 80.808594 59.953125 79.96875 L 59.960938 79.960938 C 55.5 77.871094 51.621094 75.800781 48.609375 74.171875 C 38.0625 68.46875 33.984375 64.5625 33.984375 64.5625 C 33.984375 64.5625 32 68.992188 31.03125 71.066406 C 30.425781 72.359375 30.824219 73.964844 31.140625 74.863281 C 28.765625 72.980469 28.273438 71.914062 28.382812 71.605469 C 29.085938 69.699219 29.894531 67.839844 30.816406 66.027344 C 31.382812 64.859375 32.136719 63.539062 32.796875 62.011719 C 31.773438 57.957031 31.238281 53.796875 31.207031 49.617188 C 31.207031 29.65625 43.835938 11.851562 62.75 5.148438 C 81.664062 -1.554688 102.777344 4.292969 115.484375 19.75 C 114.753906 20.335938 113.785156 21.105469 112.628906 22.027344 C 105.363281 27.808594 90.46875 39.667969 83.246094 46.914062 C 78.757812 42.746094 72.359375 41.300781 66.5 43.136719 C 61.574219 43.769531 54.921875 45.628906 54.921875 45.628906 C 52.371094 43.050781 50.363281 39.992188 49.019531 36.628906 C 48.667969 34.6875 48.519531 32.710938 48.578125 30.738281 C 48.683594 28.691406 49.082031 26.671875 49.757812 24.738281 C 50.453125 22.769531 51.464844 20.917969 52.746094 19.265625 C 54.046875 17.5625 55.65625 16.117188 57.492188 15 C 55.460938 15.859375 53.605469 17.089844 52.023438 18.621094 C 50.402344 20.175781 49.039062 21.980469 47.984375 23.960938 C 47.96875 23.996094 47.949219 24.03125 47.933594 24.066406 C 48.6875 22.269531 49.660156 20.570312 50.835938 19.011719 C 53.035156 16.109375 55.769531 13.652344 58.894531 11.773438 C 55.414062 13.191406 52.234375 15.261719 49.527344 17.863281 C 48.546875 18.816406 47.636719 19.84375 46.8125 20.9375 C 49.042969 17.46875 51.917969 14.460938 55.28125 12.066406 C 57.234375 10.671875 59.3125 9.460938 61.492188 8.453125 C 63.691406 7.429688 65.988281 6.621094 68.34375 6.039062 C 65.914062 6.375 63.523438 6.941406 61.203125 7.738281 C 58.859375 8.535156 56.597656 9.550781 54.445312 10.769531 C 52.261719 12 50.21875 13.464844 48.355469 15.132812 C 47.675781 15.746094 47.023438 16.394531 46.390625 17.0625 L 46.394531 17.023438 C 46.207031 17.226562 46.027344 17.429688 45.847656 17.632812 C 45.605469 17.898438 45.371094 18.175781 45.136719 18.449219 C 45.007812 18.601562 44.878906 18.75 44.75 18.898438 C 44.621094 19.058594 44.484375 19.214844 44.355469 19.375 C 35.675781 29.9375 33.460938 40.15625 33.605469 48.648438 C 34.195312 47.351562 35.089844 46.492188 36.160156 46.386719 C 38.363281 46.164062 40.476562 49.167969 40.878906 53.097656 C 41.277344 57.027344 39.820312 60.390625 37.613281 60.617188 C 36.652344 60.710938 35.707031 60.195312 34.914062 59.25 C 35.195312 60.539062 35.492188 61.734375 35.777344 62.828125 C 40.664062 67.222656 50.785156 73.574219 65.28125 79.800781 C 66.90625 80.582031 68.554688 81.316406 70.21875 82.003906 C 72.328125 82.875 74.460938 83.695312 76.617188 84.441406 C 78.773438 85.195312 80.964844 85.832031 83.1875 86.351562 C 80.054688 84.9375 76.914062 83.59375 73.835938 82.132812 C 74.671875 82.359375 75.507812 82.578125 76.351562 82.769531 C 77.46875 83.03125 78.613281 83.175781 79.761719 83.203125 L 76.636719 81.875 C 76.0625 81.636719 75.492188 81.398438 74.925781 81.148438 C 75.011719 81.164062 75.097656 81.179688 75.183594 81.195312 C 76.222656 81.355469 77.273438 81.386719 78.320312 81.277344 C 77.324219 80.945312 76.363281 80.621094 75.40625 80.28125 C 74.753906 80.058594 74.109375 79.8125 73.46875 79.554688 C 73.660156 79.570312 73.851562 79.585938 74.046875 79.59375 C 74.996094 79.644531 75.949219 79.566406 76.878906 79.351562 C 75.957031 79.117188 75.066406 78.90625 74.191406 78.664062 C 73.453125 78.46875 72.730469 78.238281 72.019531 77.984375 C 73.179688 77.992188 74.335938 77.804688 75.433594 77.421875 C 74.59375 77.257812 73.777344 77.148438 72.976562 77.007812 C 72.1875 76.886719 71.402344 76.707031 70.636719 76.472656 C 70.320312 76.375 70.007812 76.265625 69.699219 76.15625 C 73.605469 76.605469 77.546875 75.6875 80.847656 73.5625 C 83.753906 80.621094 89.191406 88.09375 89.4375 88.425781 L 89.582031 88.621094 L 89.792969 88.746094 C 98.578125 93.820312 106.59375 95.726562 111.230469 96.183594 C 110.683594 97.734375 110.542969 98.152344 110.460938 98.390625 C 110.355469 98.703125 110.355469 98.703125 109.667969 100.605469 C 109.574219 100.878906 108.730469 101.308594 106.433594 101.371094 Z M 37.507812 33.878906 C 37.65625 33.460938 38.105469 33.226562 38.535156 33.351562 C 38.960938 33.476562 39.21875 33.910156 39.117188 34.34375 C 39.015625 34.773438 38.589844 35.050781 38.152344 34.972656 C 37.675781 34.84375 37.386719 34.355469 37.511719 33.878906 Z M 37.972656 38.96875 C 38.730469 39.105469 39.175781 40.179688 38.960938 41.367188 C 38.746094 42.554688 37.953125 43.40625 37.195312 43.269531 C 36.433594 43.132812 35.992188 42.0625 36.207031 40.875 C 36.421875 39.6875 37.210938 38.835938 37.972656 38.972656 Z M 99.863281 105.410156 C 100.179688 104.972656 100.398438 104.472656 100.507812 103.945312 C 99.957031 103.878906 99.210938 103.785156 98.472656 103.691406 C 92.640625 102.816406 86.867188 101.558594 81.203125 99.917969 C 75.53125 98.34375 69.914062 96.53125 64.355469 94.570312 L 64.324219 94.558594 C 64.742188 94.859375 64.945312 95.375 64.847656 95.878906 C 64.625 96.589844 63.558594 96.890625 62.46875 96.554688 C 61.378906 96.21875 60.675781 95.371094 60.894531 94.660156 C 61.054688 94.152344 61.644531 93.859375 62.367188 93.851562 C 57.507812 92.058594 52.730469 90.03125 48.023438 87.875 C 45.351562 86.632812 42.695312 85.363281 40.09375 83.992188 C 37.476562 82.636719 34.894531 81.246094 32.324219 79.765625 C 33.4375 80.75 34.613281 81.65625 35.847656 82.484375 C 36.453125 82.910156 37.085938 83.296875 37.710938 83.703125 L 39.617188 84.84375 C 42.195312 86.308594 44.8125 87.707031 47.476562 89.007812 C 47.945312 89.234375 48.417969 89.457031 48.886719 89.683594 C 48.464844 89.492188 48.042969 89.296875 47.621094 89.101562 C 44.957031 87.847656 42.304688 86.5625 39.714844 85.164062 C 37.113281 83.785156 34.546875 82.363281 32 80.84375 C 33.097656 81.84375 34.261719 82.769531 35.484375 83.613281 C 36.089844 84.042969 36.71875 84.441406 37.335938 84.851562 C 37.964844 85.242188 38.597656 85.636719 39.234375 86.015625 C 41.800781 87.503906 44.410156 88.917969 47.074219 90.230469 C 47.21875 90.304688 47.363281 90.375 47.511719 90.445312 C 44.328125 88.996094 41.417969 87.550781 38.886719 86.15625 C 31.347656 81.992188 29.792969 79.675781 30.023438 79.035156 C 30.089844 78.847656 30.160156 78.648438 30.230469 78.4375 C 30.34375 78.105469 30.464844 77.746094 30.609375 77.378906 C 32.710938 78.882812 34.902344 80.257812 37.175781 81.492188 C 44.640625 85.644531 54.921875 90.132812 66.128906 94.132812 C 77.335938 98.128906 88.144531 101.164062 96.5625 102.679688 C 98.808594 103.082031 100.722656 103.351562 102.355469 103.511719 C 102.296875 103.667969 102.238281 103.824219 102.175781 103.976562 C 102.078125 104.222656 101.984375 104.457031 101.90625 104.679688 C 101.804688 104.964844 101.21875 105.28125 99.863281 105.410156 Z M 97.984375 110.078125 C 98.730469 109.433594 99.054688 107.960938 99.054688 107.960938 C 98.214844 108.027344 97.371094 108.027344 96.53125 107.964844 L 96.53125 107.960938 C 95.722656 107.90625 94.890625 107.832031 94.050781 107.738281 C 93.421875 107.664062 93.011719 107.605469 93.011719 107.605469 L 93.019531 107.617188 C 91.167969 107.386719 89.300781 107.066406 87.558594 106.675781 C 84.695312 106.03125 81.84375 105.292969 79.011719 104.5 C 73.34375 102.90625 67.734375 101.074219 62.183594 99.09375 L 62.152344 99.082031 C 62.570312 99.382812 62.773438 99.898438 62.667969 100.402344 C 62.445312 101.109375 61.378906 101.410156 60.289062 101.070312 C 59.199219 100.730469 58.496094 99.878906 58.722656 99.167969 C 58.882812 98.664062 59.472656 98.371094 60.195312 98.367188 C 55.339844 96.558594 50.574219 94.511719 45.871094 92.339844 C 43.207031 91.089844 40.554688 89.808594 37.957031 88.429688 C 35.347656 87.0625 32.769531 85.664062 30.203125 84.175781 C 31.3125 85.160156 32.484375 86.074219 33.714844 86.90625 C 34.320312 87.335938 34.953125 87.722656 35.574219 88.132812 L 37.476562 89.28125 C 40.050781 90.753906 42.660156 92.160156 45.320312 93.46875 C 45.789062 93.699219 46.261719 93.925781 46.730469 94.152344 C 46.308594 93.957031 45.886719 93.761719 45.46875 93.566406 C 42.808594 92.300781 40.160156 91.007812 37.578125 89.601562 C 34.976562 88.214844 32.417969 86.78125 29.875 85.25 C 30.96875 86.253906 32.128906 87.183594 33.351562 88.035156 C 33.953125 88.46875 34.578125 88.867188 35.195312 89.28125 C 35.824219 89.671875 36.453125 90.066406 37.089844 90.449219 C 39.570312 91.902344 42.097656 93.273438 44.664062 94.570312 C 41.917969 93.292969 39.386719 92.027344 37.15625 90.796875 C 29.613281 86.644531 28.054688 84.34375 28.285156 83.707031 L 28.464844 83.195312 C 28.5625 82.925781 28.683594 82.585938 28.816406 82.214844 C 29.191406 82.15625 29.546875 82.011719 29.855469 81.792969 C 31.167969 83.160156 33.617188 85.015625 38.132812 87.503906 C 44.683594 91.121094 53.710938 95.046875 63.542969 98.554688 C 73.375 102.066406 82.851562 104.742188 90.226562 106.09375 C 92.929688 106.640625 95.671875 106.949219 98.429688 107.015625 C 99.019531 107.019531 99.609375 106.988281 100.199219 106.925781 C 100.277344 107.289062 100.445312 107.625 100.6875 107.910156 C 100.515625 108.449219 100.375 108.8125 100.273438 109.070312 C 100.230469 109.179688 100.195312 109.273438 100.164062 109.351562 C 100.0625 109.640625 99.441406 109.960938 97.984375 110.078125 Z M 82.664062 115.289062 C 82.226562 115.089844 81.8125 114.851562 81.425781 114.574219 C 81.019531 114.296875 80.648438 113.96875 80.320312 113.605469 C 79.972656 113.246094 79.746094 112.789062 79.671875 112.292969 C 79.976562 112.617188 80.347656 112.875 80.757812 113.042969 C 81.15625 113.214844 81.5625 113.367188 81.976562 113.492188 C 82.394531 113.625 82.816406 113.738281 83.230469 113.882812 C 83.441406 113.953125 83.648438 114.03125 83.855469 114.109375 C 84.128906 114.207031 84.386719 114.335938 84.625 114.492188 C 84.949219 114.710938 85.257812 114.949219 85.546875 115.214844 C 85.617188 115.242188 85.6875 115.257812 85.761719 115.265625 C 85.972656 115.296875 86.1875 115.316406 86.398438 115.324219 C 86.867188 115.34375 87.378906 115.316406 87.902344 115.351562 C 88.441406 115.367188 88.980469 115.457031 89.5 115.613281 C 90.039062 115.769531 90.492188 116.136719 90.753906 116.628906 C 90.296875 116.476562 89.824219 116.390625 89.339844 116.367188 C 88.875 116.351562 88.410156 116.386719 87.953125 116.46875 C 87.53125 116.539062 87.09375 116.613281 86.632812 116.679688 C 86.859375 117.058594 87.082031 117.441406 87.296875 117.824219 C 87.507812 118.230469 87.757812 118.613281 88.039062 118.972656 C 87.589844 118.808594 87.164062 118.574219 86.789062 118.28125 C 86.402344 118.003906 86.042969 117.707031 85.6875 117.421875 C 85.339844 117.128906 84.976562 116.859375 84.660156 116.574219 C 84.382812 116.285156 84.085938 116.019531 83.765625 115.773438 C 83.699219 115.726562 83.625 115.683594 83.550781 115.644531 C 83.476562 115.605469 83.398438 115.574219 83.320312 115.546875 C 83.097656 115.46875 82.878906 115.386719 82.664062 115.289062 Z M 59.6875 118.757812 C 50.03125 110.519531 42.171875 105.394531 38.03125 103.660156 C 37.316406 103.273438 36.550781 102.878906 35.730469 102.46875 C 35.730469 102.46875 42.453125 102.917969 61.125 115.25 C 61.125 115.25 58.023438 110.691406 45.617188 102.726562 C 45.617188 102.726562 56.210938 105.875 69.976562 117.882812 C 69.976562 117.882812 68.554688 114.03125 55.566406 104.523438 C 55.566406 104.523438 67.714844 110.242188 76.824219 119.359375 C 76.824219 119.359375 81.800781 125.398438 88.328125 138.691406 C 88.328125 138.691406 80.378906 129.890625 79.539062 128.351562 C 78.699219 126.808594 76.179688 121.414062 73.789062 119.359375 C 73.789062 119.359375 75.855469 123.535156 76.5 127.386719 C 76.503906 127.386719 67.25 121.003906 59.691406 118.757812 Z M 2.714844 115.988281 L 5.835938 100.980469 L 6.089844 99.777344 L 6.605469 99.515625 L 21.875 91.8125 L 7.777344 100.839844 L 13.273438 107.066406 C 12.8125 107.316406 12.359375 107.578125 11.910156 107.863281 L 6.964844 102.257812 L 4.386719 114.179688 C 3.773438 114.816406 3.210938 115.429688 2.714844 115.988281 Z M 2.714844 115.988281 "/>
<path style=" stroke:none;fill-rule:nonzero;fill:rgb(14.901961%,14.509804%,14.509804%);fill-opacity:1;" d="M 56.085938 40.496094 C 54.492188 41.1875 51.433594 36.558594 51.433594 32.019531 C 51.433594 27.476562 53.757812 23.425781 55.3125 23.796875 C 56.925781 24.183594 55.964844 27.417969 56.152344 31.953125 C 56.34375 36.640625 58.152344 39.59375 56.085938 40.496094 Z M 56.085938 40.496094 "/>
<path style=" stroke:none;fill-rule:nonzero;fill:rgb(14.901961%,14.509804%,14.509804%);fill-opacity:1;" d="M 53.152344 22.957031 C 52.730469 22.671875 52.941406 21.632812 53.621094 20.636719 C 54.300781 19.636719 55.195312 19.054688 55.617188 19.339844 C 56.039062 19.625 55.828125 20.664062 55.148438 21.664062 C 54.46875 22.660156 53.574219 23.242188 53.152344 22.957031 Z M 53.152344 22.957031 "/>
</g>
</svg>
